<svg width="670" height="515" viewBox="0 0 670 515" fill="none" xmlns="http://www.w3.org/2000/svg">
<path d="M669.974 453.923H0V454.258H669.974V453.923Z" fill="#EBEBEB"/>
<path d="M602.842 466.68H481.041V467.015H602.842V466.68Z" fill="#EBEBEB"/>
<path d="M443.817 463.048H410.466V463.383H443.817V463.048Z" fill="#EBEBEB"/>
<path d="M520.047 479.128H468.338V479.463H520.047V479.128Z" fill="#EBEBEB"/>
<path d="M100.63 476.877H70.2937V477.212H100.63V476.877Z" fill="#EBEBEB"/>
<path d="M148.587 476.877H112.556V477.212H148.587V476.877Z" fill="#EBEBEB"/>
<path d="M301.689 471.222H238.926V471.557H301.689V471.222Z" fill="#EBEBEB"/>
<path d="M317.568 394.162H58.837C56.8102 394.158 54.8675 393.35 53.4356 391.916C52.0036 390.481 51.1993 388.537 51.1993 386.51V22.8085C51.217 20.7932 52.029 18.8663 53.4591 17.4463C54.8891 16.0263 56.8217 15.2278 58.837 15.2244H317.568C319.597 15.2244 321.543 16.0305 322.978 17.4653C324.413 18.9002 325.219 20.8463 325.219 22.8755V386.51C325.219 388.54 324.413 390.486 322.978 391.921C321.543 393.355 319.597 394.162 317.568 394.162ZM58.837 15.4924C56.899 15.4959 55.0416 16.2683 53.6724 17.6399C52.3033 19.0116 51.5343 20.8704 51.5343 22.8085V386.51C51.5343 388.449 52.3033 390.307 53.6724 391.679C55.0416 393.051 56.899 393.823 58.837 393.827H317.568C319.507 393.823 321.366 393.051 322.737 391.68C324.108 390.309 324.88 388.45 324.884 386.51V22.8085C324.88 20.8692 324.108 19.0104 322.737 17.6391C321.366 16.2678 319.507 15.4959 317.568 15.4924H58.837Z" fill="#EBEBEB"/>
<path d="M607.412 394.162H348.668C346.64 394.158 344.696 393.351 343.262 391.917C341.827 390.483 341.02 388.539 341.017 386.51V22.8085C341.038 20.792 341.853 18.8651 343.285 17.4455C344.717 16.0258 346.651 15.2278 348.668 15.2244H607.412C609.425 15.2313 611.354 16.0313 612.781 17.451C614.208 18.8706 615.018 20.7955 615.036 22.8085V386.51C615.036 388.535 614.234 390.477 612.804 391.911C611.375 393.345 609.436 394.154 607.412 394.162ZM348.668 15.4924C346.728 15.4959 344.87 16.2678 343.498 17.6391C342.127 19.0104 341.355 20.8692 341.352 22.8085V386.51C341.355 388.45 342.127 390.309 343.498 391.68C344.87 393.051 346.728 393.823 348.668 393.827H607.412C609.351 393.823 611.21 393.051 612.581 391.68C613.952 390.309 614.724 388.45 614.728 386.51V22.8085C614.724 20.8692 613.952 19.0104 612.581 17.6391C611.21 16.2678 609.351 15.4959 607.412 15.4924H348.668Z" fill="#EBEBEB"/>
<path d="M575.065 292.741C573.08 292.748 571.104 293.004 569.183 293.505C567.283 290.919 564.875 288.748 562.107 287.125C559.338 285.501 556.268 284.46 553.084 284.063C549.899 283.667 546.668 283.924 543.586 284.82C540.505 285.715 537.638 287.229 535.162 289.27C531.098 282.404 524.964 277.002 517.639 273.839C510.315 270.675 502.176 269.913 494.392 271.662C486.607 273.41 479.577 277.58 474.309 283.572C469.041 289.564 465.806 297.07 465.069 305.015C460.849 304.077 456.465 304.173 452.291 305.296C448.117 306.419 444.276 308.536 441.097 311.464C437.918 314.393 435.494 318.047 434.032 322.115C432.571 326.183 432.116 330.545 432.705 334.827C433.294 339.109 434.91 343.186 437.415 346.708C439.921 350.231 443.241 353.095 447.093 355.056C450.945 357.018 455.214 358.018 459.537 357.973C463.859 357.927 468.106 356.836 471.916 354.794C473.621 360.952 477.135 366.457 482.004 370.594C486.874 374.732 492.873 377.312 499.226 378.001C505.578 378.69 511.991 377.455 517.634 374.457C523.277 371.459 527.889 366.835 530.874 361.185C535.987 365.55 542.232 368.377 548.885 369.341C555.539 370.304 562.329 369.364 568.47 366.629C574.612 363.894 579.853 359.476 583.589 353.886C587.324 348.296 589.4 341.763 589.577 335.043C593.481 332.031 596.343 327.872 597.763 323.15C599.183 318.429 599.09 313.381 597.495 308.715C595.9 304.049 592.885 300 588.872 297.135C584.859 294.27 580.05 292.734 575.119 292.741H575.065Z" fill="#F5F5F5"/>
<path d="M97.3739 150.988C94.3655 149.676 90.9594 149.612 87.9041 150.811C84.8488 152.009 82.3943 154.372 81.0802 157.379C79.5776 156.626 77.9373 156.186 76.2593 156.087C74.5813 155.989 72.9008 156.232 71.32 156.804C69.7393 157.376 68.2916 158.263 67.065 159.413C65.8384 160.562 64.8587 161.949 64.1856 163.489C63.5125 165.029 63.16 166.691 63.1498 168.371C63.1395 170.052 63.4716 171.718 64.1258 173.266C64.78 174.814 65.7427 176.213 66.9551 177.378C68.1676 178.542 69.6044 179.447 71.178 180.038L93.8633 189.94L103.765 167.255C105.073 164.25 105.134 160.849 103.935 157.799C102.737 154.749 100.377 152.299 97.3739 150.988Z" fill="#F5F5F5"/>
<path d="M203.149 42.9077C202.644 41.9454 201.954 41.0922 201.119 40.3968C200.284 39.7015 199.319 39.1776 198.281 38.8553C197.244 38.533 196.152 38.4184 195.07 38.5183C193.988 38.6181 192.936 38.9304 191.974 39.4372C190.915 37.5606 189.166 36.1708 187.099 35.563C185.031 34.9551 182.809 35.1771 180.902 36.1817C178.996 37.1863 177.556 38.8945 176.889 40.9435C176.222 42.9924 176.379 45.2208 177.329 47.1553L185.047 61.8009L199.652 54.0828C200.617 53.5799 201.473 52.8916 202.171 52.0574C202.869 51.2231 203.395 50.2593 203.72 49.2211C204.045 48.183 204.162 47.0909 204.064 46.0075C203.966 44.9241 203.655 43.8707 203.149 42.9077Z" fill="#E6E6E6"/>
<path d="M539.999 9.65016C539.492 8.68902 538.802 7.8371 537.966 7.1431C537.13 6.44911 536.166 5.92665 535.128 5.60559C534.09 5.28453 532.999 5.17116 531.917 5.27197C530.836 5.37278 529.784 5.68578 528.824 6.1931C528.319 5.22881 527.629 4.37344 526.793 3.67582C525.957 2.9782 524.993 2.45199 523.954 2.12724C522.915 1.80249 521.822 1.68556 520.738 1.78312C519.654 1.88067 518.599 2.19082 517.635 2.69584C516.671 3.20086 515.815 3.89086 515.118 4.72645C514.42 5.56204 513.894 6.52686 513.569 7.56581C513.245 8.60476 513.128 9.69751 513.225 10.7817C513.323 11.8658 513.633 12.9201 514.138 13.8844L521.856 28.5166L536.488 20.8119C538.43 19.7933 539.889 18.0472 540.547 15.9556C541.205 13.8639 541.008 11.5969 539.999 9.65016Z" fill="#F5F5F5"/>
<path d="M593.597 251.819C593.343 250.216 592.464 248.779 591.153 247.822C589.843 246.866 588.206 246.467 586.602 246.714C586.286 245.175 585.39 243.818 584.099 242.923C582.809 242.028 581.223 241.664 579.672 241.908C578.12 242.151 576.722 242.982 575.767 244.228C574.812 245.475 574.373 247.042 574.543 248.603L576.432 260.663L588.492 258.773C590.088 258.522 591.52 257.65 592.477 256.348C593.433 255.045 593.836 253.417 593.597 251.819Z" fill="#EBEBEB"/>
<path d="M469.692 148.228C469.065 148.03 468.405 147.959 467.75 148.017C467.095 148.076 466.458 148.263 465.875 148.568C465.293 148.873 464.776 149.29 464.355 149.794C463.934 150.299 463.616 150.883 463.421 151.51C462.793 151.314 462.132 151.244 461.477 151.303C460.821 151.362 460.184 151.55 459.601 151.855C459.018 152.161 458.501 152.578 458.079 153.083C457.657 153.588 457.339 154.172 457.143 154.8C456.947 155.428 456.876 156.089 456.936 156.744C456.995 157.4 457.182 158.037 457.488 158.62C457.793 159.203 458.211 159.72 458.716 160.142C459.221 160.563 459.805 160.881 460.433 161.078L470 164.066L472.988 154.499C473.382 153.23 473.256 151.857 472.638 150.681C472.02 149.505 470.96 148.622 469.692 148.228Z" fill="#F5F5F5"/>
<path d="M98.3388 25.944C97.0683 25.5497 95.6933 25.6752 94.5152 26.2931C93.3372 26.911 92.4522 27.9709 92.0544 29.2403C91.4271 29.0449 90.7675 28.9751 90.1132 29.0347C89.4589 29.0943 88.8227 29.2822 88.241 29.5877C87.6593 29.8931 87.1435 30.3102 86.723 30.815C86.3024 31.3198 85.9855 31.9025 85.7902 32.5298C85.5948 33.1571 85.525 33.8168 85.5846 34.4711C85.6442 35.1254 85.8321 35.7616 86.1376 36.3433C86.443 36.9249 86.8601 37.4408 87.3649 37.8613C87.8697 38.2818 88.4524 38.5988 89.0797 38.7941L98.6336 41.7822L101.622 32.2149C101.819 31.5877 101.89 30.9276 101.832 30.2727C101.774 29.6177 101.587 28.9807 101.282 28.3982C100.977 27.8156 100.56 27.299 100.055 26.8779C99.5497 26.4567 98.9666 26.1394 98.3388 25.944Z" fill="#F5F5F5"/>
<path d="M247.77 249.608C247.761 241.628 244.786 233.936 239.422 228.027C234.058 222.118 226.689 218.415 218.747 217.637C214.781 208.723 208.535 201.013 200.638 195.285C192.741 189.557 183.473 186.013 173.768 185.012C164.064 184.01 154.267 185.586 145.367 189.58C136.466 193.574 128.777 199.846 123.074 207.761C118.347 204.316 112.669 202.42 106.819 202.334C100.97 202.248 95.2386 203.977 90.4124 207.282C85.5863 210.588 81.9031 215.308 79.8696 220.793C77.8361 226.277 77.5522 232.258 79.057 237.91C74.5861 241.675 70.9346 246.317 68.328 251.548C65.7215 256.78 64.2151 262.49 63.9021 268.326C63.589 274.163 64.4759 280.002 66.508 285.482C68.5401 290.962 71.6742 295.968 75.7167 300.189C79.7592 304.411 84.6243 307.758 90.0114 310.026C95.3986 312.293 101.193 313.432 107.038 313.372C112.883 313.312 118.653 312.054 123.992 309.676C129.332 307.299 134.127 303.852 138.082 299.548C143.344 306.387 150.45 311.582 158.563 314.522C166.676 317.461 175.46 318.024 183.882 316.144C192.305 314.264 200.015 310.019 206.108 303.908C212.201 297.797 216.423 290.074 218.278 281.646C226.316 280.977 233.809 277.313 239.271 271.378C244.734 265.444 247.767 257.674 247.77 249.608Z" fill="#EBEBEB"/>
<path d="M464.694 98.8639C464.698 93.455 466.714 88.2411 470.35 84.2364C473.986 80.2317 478.981 77.7225 484.364 77.197C487.036 71.1424 491.262 65.9022 496.613 62.0082C501.964 58.1141 508.249 55.7047 514.832 55.0244C521.415 54.344 528.061 55.417 534.095 58.1344C540.129 60.8519 545.337 65.117 549.191 70.4972C552.396 68.179 556.24 66.908 560.195 66.8584C564.151 66.8087 568.025 67.9828 571.287 70.2199C574.55 72.4569 577.041 75.6477 578.42 79.3553C579.799 83.0628 579.999 87.1061 578.991 90.9314C582.033 93.4788 584.519 96.6239 586.295 100.172C588.071 103.719 589.1 107.594 589.317 111.555C589.534 115.517 588.935 119.481 587.557 123.201C586.179 126.922 584.052 130.32 581.307 133.184C578.562 136.049 575.258 138.319 571.599 139.854C567.941 141.389 564.006 142.156 560.039 142.108C556.072 142.06 552.157 141.198 548.537 139.574C544.917 137.951 541.669 135.601 538.994 132.671C535.434 137.309 530.625 140.834 525.13 142.833C519.636 144.832 513.686 145.221 507.978 143.954C502.27 142.688 497.043 139.818 492.91 135.683C488.777 131.548 485.91 126.319 484.646 120.611C479.197 120.154 474.12 117.663 470.423 113.634C466.727 109.604 464.681 104.332 464.694 98.8639Z" fill="#F0F0F0"/>
<path d="M334.987 514.435C478.472 514.435 594.789 507.644 594.789 499.267C594.789 490.89 478.472 484.099 334.987 484.099C191.502 484.099 75.1846 490.89 75.1846 499.267C75.1846 507.644 191.502 514.435 334.987 514.435Z" fill="#F5F5F5"/>
<path d="M182.38 465.112H109.581C107.876 465.094 106.247 464.404 105.048 463.193C103.849 461.981 103.176 460.345 103.176 458.64V428.772C103.179 427.247 103.72 425.771 104.704 424.605L186.976 326.789C187.585 326.067 188.344 325.487 189.201 325.089C190.057 324.691 190.99 324.484 191.934 324.484H223.463C225.18 324.484 226.826 325.166 228.039 326.38C229.253 327.594 229.935 329.24 229.935 330.956V422.073C229.935 423.789 230.617 425.435 231.831 426.649C233.044 427.863 234.691 428.545 236.407 428.545H244.728C246.445 428.545 248.091 429.226 249.304 430.44C250.518 431.654 251.2 433.3 251.2 435.017V458.586C251.2 460.303 250.518 461.949 249.304 463.163C248.091 464.376 246.445 465.058 244.728 465.058H236.407C234.691 465.058 233.044 465.74 231.831 466.954C230.617 468.167 229.935 469.814 229.935 471.53V490.289C229.935 492.006 229.253 493.652 228.039 494.866C226.826 496.079 225.18 496.761 223.463 496.761H195.324C193.608 496.761 191.962 496.079 190.748 494.866C189.534 493.652 188.852 492.006 188.852 490.289V471.53C188.838 469.823 188.15 468.191 186.938 466.988C185.726 465.786 184.088 465.112 182.38 465.112ZM188.852 424.069V387.623C188.868 386.681 188.589 385.759 188.056 384.983C187.523 384.207 186.761 383.617 185.877 383.294C184.992 382.971 184.03 382.932 183.122 383.182C182.214 383.432 181.407 383.958 180.813 384.688L149.846 421.135C149.286 421.793 148.927 422.598 148.809 423.454C148.692 424.31 148.822 425.182 149.184 425.967C149.546 426.751 150.125 427.416 150.852 427.882C151.58 428.349 152.426 428.597 153.29 428.598H184.27C184.869 428.605 185.464 428.493 186.019 428.269C186.575 428.045 187.081 427.712 187.507 427.291C187.933 426.869 188.272 426.368 188.502 425.815C188.733 425.262 188.852 424.668 188.852 424.069Z" fill="#263238"/>
<path d="M265.805 411.393C265.805 379.235 271.612 356.701 283.225 343.793C294.838 330.885 312.494 324.453 336.193 324.498C347.591 324.498 356.971 325.905 364.332 328.719C370.984 331.119 377.076 334.853 382.233 339.693C386.582 343.838 390.265 348.629 393.154 353.896C396.016 359.41 398.173 365.263 399.572 371.316C402.77 384.242 404.363 397.514 404.316 410.831C404.316 441.569 399.112 464.062 388.705 478.31C378.298 492.559 360.392 499.705 334.987 499.75C320.694 499.75 309.175 497.476 300.43 492.929C291.519 488.309 284.016 481.376 278.709 472.857C274.618 466.604 271.438 458.073 269.169 447.264C266.82 435.454 265.693 423.434 265.805 411.393ZM312.489 411.501C312.489 433.074 314.396 447.813 318.211 455.719C322.025 463.625 327.55 467.577 334.786 467.577C337.086 467.599 339.369 467.166 341.501 466.301C343.632 465.436 345.572 464.158 347.207 462.539C350.718 459.189 353.299 453.892 354.952 446.647C356.605 439.403 357.431 428.12 357.431 412.8C357.431 390.316 355.524 375.201 351.709 367.457C347.895 359.712 342.178 355.839 334.558 355.839C326.768 355.839 321.145 359.788 317.688 367.684C314.231 375.581 312.498 390.186 312.489 411.501Z" fill="#263238"/>
<path d="M498.045 465.112H425.259C423.543 465.112 421.897 464.43 420.683 463.216C419.469 462.002 418.787 460.356 418.787 458.64V428.772C418.787 427.249 419.323 425.773 420.301 424.605L502.588 326.789C503.194 326.067 503.95 325.487 504.804 325.089C505.659 324.691 506.59 324.484 507.532 324.484H539.074C540.791 324.484 542.437 325.166 543.651 326.38C544.864 327.594 545.546 329.24 545.546 330.956V422.073C545.539 422.93 545.703 423.781 546.027 424.575C546.352 425.369 546.831 426.091 547.437 426.698C548.043 427.305 548.763 427.786 549.557 428.112C550.35 428.438 551.201 428.604 552.058 428.598H560.366C562.083 428.598 563.729 429.28 564.942 430.494C566.156 431.708 566.838 433.354 566.838 435.07V458.64C566.838 460.356 566.156 462.002 564.942 463.216C563.729 464.43 562.083 465.112 560.366 465.112H552.058C550.342 465.112 548.696 465.794 547.482 467.007C546.268 468.221 545.586 469.867 545.586 471.584V490.343C545.586 492.059 544.905 493.706 543.691 494.919C542.477 496.133 540.831 496.815 539.115 496.815H510.976C509.259 496.815 507.613 496.133 506.399 494.919C505.186 493.706 504.504 492.059 504.504 490.343V471.584C504.504 469.87 503.824 468.225 502.613 467.012C501.402 465.799 499.759 465.115 498.045 465.112ZM504.517 424.069V387.623C504.516 386.697 504.231 385.794 503.701 385.036C503.171 384.277 502.421 383.699 501.552 383.379C500.684 383.06 499.738 383.014 498.843 383.248C497.948 383.482 497.145 383.984 496.544 384.688L465.565 421.135C465.006 421.791 464.647 422.593 464.528 423.447C464.41 424.301 464.538 425.171 464.896 425.955C465.255 426.738 465.83 427.403 466.554 427.872C467.277 428.34 468.12 428.592 468.982 428.598H499.948C500.546 428.604 501.139 428.49 501.693 428.265C502.248 428.04 502.752 427.707 503.176 427.286C503.601 426.865 503.938 426.364 504.169 425.812C504.399 425.26 504.517 424.667 504.517 424.069Z" fill="#263238"/>
<path d="M211.471 342.011C210.224 344.691 208.911 347.103 207.638 349.595L203.886 357.032L200.135 364.495C198.875 367.001 197.575 369.507 196.034 371.972C196.265 369.101 196.818 366.265 197.682 363.517C198.504 360.75 199.567 358.059 200.858 355.477C202.144 352.893 203.669 350.434 205.414 348.134C207.138 345.822 209.177 343.761 211.471 342.011Z" fill="white"/>
<path d="M216.241 348.309C215.075 350.627 213.869 352.811 212.69 355.008L209.219 361.574L205.749 368.167C204.583 370.378 203.391 372.602 201.97 374.773C202.221 372.215 202.756 369.694 203.565 367.255C204.348 364.813 205.339 362.441 206.526 360.167C207.71 357.883 209.115 355.72 210.72 353.709C212.296 351.657 214.155 349.839 216.241 348.309Z" fill="white"/>
<path d="M203.216 339.371C202.185 341.783 201.086 344.048 200.014 346.325L196.865 353.146L193.716 359.979C192.644 362.271 191.559 364.576 190.246 366.84C190.369 364.246 190.787 361.675 191.492 359.176C192.163 356.666 193.06 354.221 194.172 351.873C195.251 349.524 196.548 347.281 198.044 345.173C199.496 343.012 201.236 341.06 203.216 339.371Z" fill="white"/>
<path d="M510.52 441.207C512.813 442.973 514.851 445.047 516.577 447.371C518.357 449.672 519.918 452.135 521.24 454.727C522.523 457.311 523.581 460.001 524.402 462.767C525.265 465.516 525.822 468.351 526.063 471.222C524.509 468.756 523.223 466.251 521.95 463.745L518.198 456.282L514.446 448.845C513.12 446.299 511.86 443.833 510.52 441.207Z" fill="white"/>
<path d="M505.803 447.505C507.877 449.03 509.73 450.833 511.311 452.865C512.917 454.879 514.322 457.047 515.505 459.337C516.703 461.605 517.694 463.978 518.466 466.425C519.286 468.861 519.825 471.383 520.074 473.942C518.654 471.771 517.461 469.547 516.282 467.336L512.811 460.744L509.341 454.178C508.162 452.047 506.956 449.823 505.803 447.505Z" fill="white"/>
<path d="M518.814 438.567C520.82 440.239 522.587 442.178 524.067 444.329C525.564 446.434 526.856 448.678 527.926 451.029C529.031 453.38 529.928 455.824 530.606 458.332C531.305 460.832 531.723 463.403 531.852 465.996C530.512 463.718 529.44 461.427 528.381 459.136L525.233 452.288L522.084 445.482C520.958 443.244 519.9 440.979 518.814 438.567Z" fill="white"/>
<path d="M400.805 479.677H418.6V484.206H407.465V487.623H417.796V492.005H407.465V496.266H418.921V501.13H400.805V479.677Z" fill="#9BCEFF"/>
<path d="M418.921 503.756H400.805C400.119 503.756 399.461 503.483 398.976 502.998C398.491 502.513 398.219 501.856 398.219 501.17V479.731C398.217 479.391 398.283 479.053 398.412 478.739C398.542 478.424 398.732 478.139 398.973 477.898C399.213 477.658 399.499 477.467 399.813 477.338C400.128 477.208 400.465 477.143 400.805 477.145H418.6C418.94 477.143 419.277 477.208 419.591 477.338C419.906 477.467 420.192 477.658 420.432 477.898C420.673 478.139 420.863 478.424 420.992 478.739C421.122 479.053 421.187 479.391 421.186 479.731V484.206C420.646 484.57 420.264 485.124 420.115 485.757C419.966 486.391 420.061 487.057 420.382 487.623V492.005C420.083 492.326 419.871 492.718 419.765 493.143C419.659 493.569 419.662 494.014 419.775 494.438C419.887 494.862 420.105 495.251 420.408 495.568C420.711 495.885 421.089 496.121 421.507 496.252V501.116C421.514 501.46 421.453 501.802 421.326 502.122C421.199 502.442 421.01 502.734 420.769 502.98C420.528 503.225 420.241 503.421 419.923 503.554C419.606 503.687 419.265 503.756 418.921 503.756ZM403.391 498.584H406.245C405.836 498.362 405.495 498.033 405.259 497.631C405.022 497.23 404.9 496.771 404.905 496.306V492.058C405.273 491.823 405.576 491.499 405.786 491.116C405.996 490.734 406.106 490.304 406.106 489.867C406.106 489.431 405.996 489.001 405.786 488.618C405.576 488.235 405.273 487.912 404.905 487.677V484.206C404.906 483.823 404.991 483.446 405.156 483.1C405.32 482.755 405.56 482.451 405.857 482.21H403.418L403.391 498.584Z" fill="#9BCEFF"/>
<path d="M422.593 501.17V479.731H433.661C435.245 479.674 436.83 479.85 438.364 480.253C439.455 480.579 440.401 481.27 441.044 482.21C441.52 482.892 441.851 483.665 442.015 484.48C442.18 485.296 442.175 486.136 442 486.95C441.825 487.763 441.485 488.532 441 489.208C440.515 489.884 439.896 490.453 439.181 490.879C438.455 491.287 437.667 491.576 436.85 491.737C437.46 491.917 438.043 492.183 438.578 492.527C438.975 492.858 439.331 493.236 439.637 493.653C439.988 494.071 440.301 494.52 440.575 494.993L443.791 501.223H436.287L432.736 494.658C432.451 494.028 432.041 493.462 431.53 492.996C431.055 492.665 430.488 492.491 429.909 492.5H429.319V501.223L422.593 501.17ZM429.292 488.387H432.093C432.685 488.336 433.272 488.237 433.848 488.092C434.283 488.009 434.671 487.765 434.934 487.409C435.24 486.985 435.385 486.465 435.34 485.943C435.296 485.422 435.066 484.934 434.692 484.568C433.947 484.122 433.077 483.929 432.213 484.018H429.292V488.387Z" fill="#9BCEFF"/>
<path d="M443.737 503.756H436.233C435.769 503.757 435.312 503.633 434.911 503.397C434.511 503.161 434.181 502.823 433.955 502.416L431.852 498.503V501.183C431.848 501.868 431.575 502.524 431.09 503.008C430.606 503.492 429.95 503.766 429.266 503.769H422.566C422.226 503.769 421.89 503.702 421.576 503.572C421.262 503.442 420.977 503.252 420.737 503.012C420.497 502.772 420.307 502.487 420.177 502.173C420.047 501.859 419.98 501.523 419.98 501.183V479.744C419.978 479.404 420.044 479.067 420.173 478.752C420.302 478.438 420.493 478.152 420.733 477.911C420.974 477.671 421.26 477.481 421.574 477.351C421.889 477.222 422.226 477.156 422.566 477.158H433.634C435.492 477.095 437.35 477.316 439.141 477.815C440.745 478.326 442.132 479.359 443.08 480.749C444.075 482.208 444.585 483.942 444.541 485.707C444.57 487.245 444.186 488.763 443.429 490.102C442.969 490.891 442.38 491.597 441.687 492.192C442.112 492.708 442.484 493.265 442.799 493.854L446.002 500.044C446.206 500.438 446.306 500.878 446.292 501.322C446.277 501.766 446.148 502.198 445.918 502.578C445.688 502.957 445.364 503.271 444.977 503.489C444.591 503.707 444.154 503.822 443.71 503.823L443.737 503.756ZM437.774 498.584H439.503L438.163 496.132C437.985 495.803 437.769 495.498 437.52 495.22C437.333 494.981 437.131 494.753 436.917 494.537C436.601 494.368 436.269 494.234 435.925 494.135C435.595 494.021 435.29 493.844 435.027 493.612L437.774 498.584ZM425.179 498.584H426.68V492.447C426.679 492.054 426.769 491.667 426.94 491.314C427.112 490.961 427.362 490.652 427.671 490.41C427.362 490.171 427.113 489.864 426.941 489.513C426.769 489.163 426.679 488.777 426.68 488.387V484.018C426.68 483.368 426.924 482.742 427.363 482.263H425.179V498.584ZM433.031 490.879C433.517 491.254 433.938 491.707 434.277 492.219C434.228 491.995 434.205 491.765 434.21 491.536C434.235 491.207 434.316 490.885 434.451 490.584H434.331C433.821 490.745 433.393 490.825 433.031 490.906V490.879ZM436.019 482.37L436.327 482.598C436.843 483.034 437.254 483.581 437.528 484.198C437.802 484.816 437.932 485.487 437.908 486.162C437.915 487.174 437.585 488.159 436.97 488.963C437.258 488.885 437.533 488.768 437.788 488.615C438.287 488.325 438.706 487.915 439.007 487.422C439.296 486.874 439.435 486.259 439.409 485.64C439.445 484.934 439.258 484.236 438.873 483.643C438.557 483.166 438.082 482.815 437.533 482.652C437.038 482.513 436.531 482.419 436.019 482.37Z" fill="#9BCEFF"/>
<path d="M445.948 501.17V479.731H457.016C458.605 479.673 460.194 479.849 461.733 480.253C462.825 480.577 463.771 481.268 464.412 482.21C464.889 482.892 465.22 483.665 465.384 484.48C465.549 485.296 465.543 486.136 465.369 486.95C465.194 487.763 464.853 488.532 464.368 489.208C463.883 489.884 463.264 490.453 462.55 490.879C461.823 491.287 461.036 491.576 460.218 491.737C460.829 491.917 461.411 492.183 461.947 492.527C462.349 492.857 462.709 493.235 463.019 493.653C463.362 494.074 463.671 494.522 463.943 494.993L467.159 501.223H459.602L456.051 494.658C455.771 494.025 455.36 493.459 454.845 492.996C454.373 492.66 453.804 492.486 453.224 492.5H452.634V501.223L445.948 501.17ZM452.648 488.387H455.448C456.04 488.337 456.628 488.238 457.204 488.092C457.639 488.009 458.026 487.765 458.289 487.409C458.568 487.054 458.715 486.613 458.704 486.162C458.722 485.864 458.672 485.566 458.558 485.29C458.445 485.014 458.27 484.767 458.048 484.568C457.302 484.122 456.433 483.929 455.569 484.018H452.648V488.387Z" fill="#9BCEFF"/>
<path d="M467.092 503.756H459.602C459.137 503.757 458.681 503.633 458.28 503.397C457.879 503.161 457.549 502.823 457.324 502.416L455.22 498.503V501.183C455.22 501.869 454.948 502.527 454.463 503.012C453.978 503.497 453.32 503.769 452.634 503.769H445.935C445.25 503.766 444.594 503.492 444.11 503.008C443.626 502.524 443.352 501.868 443.348 501.183V479.744C443.348 479.058 443.621 478.4 444.106 477.915C444.591 477.43 445.249 477.158 445.935 477.158H457.003C458.861 477.094 460.718 477.315 462.51 477.815C464.119 478.321 465.512 479.355 466.463 480.749C467.361 482.136 467.867 483.741 467.926 485.393C467.985 487.044 467.595 488.681 466.798 490.129C466.338 490.914 465.754 491.62 465.069 492.219C465.489 492.738 465.861 493.294 466.181 493.881L469.37 500.071C469.575 500.465 469.675 500.905 469.66 501.349C469.646 501.792 469.517 502.225 469.287 502.605C469.057 502.984 468.733 503.298 468.346 503.516C467.959 503.734 467.523 503.849 467.079 503.85L467.092 503.756ZM461.13 498.584H462.858L461.585 496.132C461.392 495.81 461.173 495.505 460.929 495.22C460.752 494.972 460.55 494.743 460.326 494.537C460.01 494.368 459.678 494.234 459.334 494.135C459.008 494.02 458.708 493.842 458.45 493.612L461.13 498.584ZM448.534 498.584H450.035V492.447C450.035 492.054 450.124 491.667 450.296 491.314C450.468 490.961 450.717 490.652 451.026 490.41C450.718 490.171 450.468 489.864 450.296 489.513C450.124 489.163 450.035 488.777 450.035 488.387V484.018C450.035 483.366 450.284 482.738 450.732 482.263H448.534V498.584ZM456.386 490.906C456.872 491.281 457.293 491.734 457.632 492.246C457.599 492.019 457.599 491.789 457.632 491.562C457.646 491.234 457.723 490.91 457.86 490.611H457.753C457.177 490.745 456.748 490.825 456.386 490.906ZM459.388 482.397L459.682 482.625C460.199 483.061 460.609 483.608 460.883 484.225C461.157 484.843 461.287 485.514 461.264 486.189C461.271 487.201 460.941 488.186 460.326 488.99C460.617 488.911 460.896 488.794 461.156 488.641C461.652 488.351 462.066 487.941 462.362 487.449C462.651 486.901 462.79 486.286 462.764 485.667C462.801 484.961 462.613 484.262 462.228 483.67C461.912 483.192 461.438 482.841 460.888 482.679C460.398 482.532 459.896 482.429 459.388 482.37V482.397Z" fill="#9BCEFF"/>
<path d="M467.87 490.437C467.722 488.94 467.908 487.43 468.414 486.014C468.919 484.598 469.733 483.311 470.795 482.247C471.857 481.182 473.141 480.366 474.556 479.857C475.971 479.348 477.481 479.158 478.978 479.302C480.478 479.206 481.983 479.412 483.403 479.907C484.822 480.401 486.129 481.175 487.245 482.183C488.244 483.259 489.015 484.526 489.512 485.907C490.01 487.289 490.223 488.756 490.139 490.222C490.222 492.353 489.79 494.472 488.88 496.4C488.052 497.984 486.775 499.289 485.208 500.151C483.365 501.105 481.306 501.566 479.232 501.491C477.166 501.56 475.111 501.166 473.216 500.339C471.588 499.533 470.243 498.253 469.357 496.668C468.312 494.761 467.799 492.609 467.87 490.437ZM474.569 490.437C474.423 492.088 474.849 493.739 475.775 495.113C476.203 495.558 476.716 495.912 477.283 496.153C477.851 496.395 478.461 496.519 479.078 496.519C479.695 496.519 480.305 496.395 480.873 496.153C481.441 495.912 481.954 495.558 482.381 495.113C483.317 493.624 483.731 491.866 483.56 490.115C483.686 488.538 483.249 486.966 482.328 485.68C481.906 485.226 481.39 484.87 480.816 484.639C480.241 484.407 479.623 484.305 479.004 484.34C478.396 484.318 477.79 484.434 477.233 484.68C476.676 484.926 476.182 485.296 475.789 485.76C474.83 487.132 474.38 488.796 474.516 490.464L474.569 490.437Z" fill="#9BCEFF"/>
<path d="M479.232 504.118C476.775 504.187 474.334 503.702 472.09 502.697C470.003 501.676 468.274 500.046 467.133 498.021C465.839 495.708 465.2 493.086 465.283 490.437C465.38 487.725 466.25 485.096 467.789 482.861C469.328 480.626 471.473 478.876 473.972 477.818C476.472 476.76 479.221 476.437 481.897 476.887C484.574 477.338 487.066 478.543 489.081 480.36C490.332 481.676 491.302 483.232 491.933 484.935C492.564 486.637 492.843 488.449 492.752 490.263C492.836 492.814 492.298 495.348 491.185 497.646C490.13 499.674 488.498 501.343 486.495 502.443C484.259 503.619 481.757 504.196 479.232 504.118ZM481.041 482.022C482.28 482.361 483.39 483.061 484.23 484.032C485.589 485.777 486.253 487.963 486.093 490.169C486.093 493.237 485.517 495.408 484.324 496.869C483.559 497.776 482.557 498.453 481.43 498.825C482.317 498.695 483.174 498.409 483.962 497.981C485.102 497.374 486.035 496.441 486.642 495.301C487.361 493.746 487.696 492.041 487.62 490.33C487.704 489.198 487.557 488.061 487.189 486.988C486.82 485.914 486.238 484.927 485.476 484.085C484.268 482.924 482.708 482.198 481.041 482.022ZM476.901 482.022C475.296 482.216 473.799 482.932 472.64 484.059C471.866 484.918 471.275 485.925 470.902 487.019C470.529 488.113 470.382 489.271 470.469 490.423C470.394 492.147 470.782 493.859 471.595 495.381C472.218 496.537 473.181 497.473 474.355 498.061C475.04 498.384 475.766 498.614 476.512 498.745C475.445 498.356 474.499 497.695 473.765 496.828C472.571 494.92 471.937 492.715 471.937 490.464C471.937 488.213 472.571 486.007 473.765 484.099C474.581 483.119 475.667 482.401 476.887 482.035L476.901 482.022ZM478.964 486.913C478.729 486.889 478.491 486.923 478.272 487.012C478.052 487.101 477.858 487.241 477.705 487.422C477.192 488.343 476.986 489.404 477.115 490.45C476.985 491.488 477.191 492.54 477.705 493.452C477.869 493.64 478.078 493.784 478.311 493.873C478.545 493.962 478.797 493.992 479.045 493.961C479.983 493.961 480.251 493.653 480.385 493.492C480.519 493.331 480.947 492.742 480.947 490.155C481.054 489.221 480.846 488.279 480.358 487.476C480.189 487.27 479.973 487.109 479.727 487.007C479.482 486.904 479.216 486.862 478.951 486.886L478.964 486.913Z" fill="#9BCEFF"/>
<path d="M493.811 501.17V479.731H504.879C506.464 479.674 508.048 479.85 509.582 480.253C510.673 480.579 511.619 481.27 512.262 482.21C512.738 482.892 513.069 483.665 513.234 484.48C513.398 485.296 513.393 486.136 513.218 486.95C513.043 487.763 512.703 488.532 512.218 489.208C511.733 489.884 511.114 490.453 510.399 490.879C509.673 491.287 508.886 491.576 508.068 491.737C508.679 491.917 509.261 492.183 509.796 492.527C510.193 492.858 510.549 493.236 510.855 493.653C511.206 494.071 511.52 494.52 511.793 494.993L515.009 501.223H507.505L503.954 494.658C503.669 494.028 503.259 493.462 502.748 492.996C502.273 492.665 501.706 492.491 501.127 492.5H500.537V501.223L493.811 501.17ZM500.511 488.387H503.311C503.903 488.336 504.49 488.237 505.066 488.092C505.501 488.009 505.889 487.765 506.152 487.409C506.458 486.985 506.603 486.465 506.559 485.943C506.514 485.422 506.284 484.934 505.911 484.568C505.165 484.122 504.296 483.929 503.432 484.018H500.511V488.387Z" fill="#9BCEFF"/>
<path d="M514.955 503.756H507.452C506.987 503.757 506.53 503.633 506.13 503.397C505.729 503.161 505.399 502.823 505.174 502.416L503.07 498.503V501.183C503.066 501.868 502.793 502.524 502.309 503.008C501.824 503.492 501.169 503.766 500.484 503.769H493.784C493.098 503.769 492.44 503.497 491.955 503.012C491.47 502.527 491.198 501.869 491.198 501.183V479.744C491.196 479.404 491.262 479.067 491.391 478.752C491.521 478.438 491.711 478.152 491.951 477.911C492.192 477.671 492.478 477.481 492.792 477.351C493.107 477.222 493.444 477.156 493.784 477.158H504.852C506.711 477.095 508.568 477.316 510.359 477.815C511.963 478.326 513.35 479.359 514.299 480.749C515.297 482.206 515.813 483.941 515.773 485.707C515.799 487.246 515.41 488.764 514.647 490.102C514.187 490.891 513.598 491.597 512.905 492.192C513.33 492.708 513.702 493.265 514.017 493.854L517.22 500.044C517.424 500.438 517.524 500.878 517.51 501.322C517.495 501.766 517.367 502.198 517.136 502.578C516.906 502.957 516.582 503.271 516.195 503.489C515.809 503.707 515.372 503.822 514.928 503.823L514.955 503.756ZM508.992 498.584H510.708L509.448 496.132C509.255 495.81 509.035 495.505 508.791 495.22C508.604 494.981 508.403 494.753 508.189 494.537C507.873 494.368 507.541 494.234 507.197 494.135C506.866 494.021 506.562 493.844 506.299 493.612L508.992 498.584ZM496.397 498.584H497.898V492.447C497.898 492.054 497.987 491.667 498.159 491.314C498.33 490.961 498.58 490.652 498.889 490.41C498.581 490.171 498.331 489.864 498.159 489.513C497.987 489.163 497.898 488.777 497.898 488.387V484.018C497.893 483.367 498.137 482.739 498.581 482.263H496.397V498.584ZM504.249 490.879C504.735 491.254 505.156 491.707 505.495 492.219C505.461 491.992 505.461 491.762 505.495 491.536C505.509 491.207 505.586 490.884 505.723 490.584H505.602C505.04 490.745 504.611 490.825 504.249 490.906V490.879ZM507.251 482.37L507.545 482.598C508.061 483.034 508.472 483.581 508.746 484.198C509.02 484.816 509.15 485.487 509.126 486.162C509.133 487.174 508.803 488.159 508.189 488.963C509.034 488.725 509.758 488.174 510.212 487.422C510.503 486.831 510.645 486.177 510.623 485.518C510.602 484.859 510.42 484.215 510.091 483.643C509.775 483.166 509.301 482.815 508.751 482.652C508.26 482.514 507.758 482.42 507.251 482.37Z" fill="#9BCEFF"/>
<path d="M400.805 479.677H418.6V484.206H407.465V487.623H417.796V492.005H407.465V496.266H418.921V501.13H400.805V479.677Z" fill="white"/>
<path d="M422.593 501.17V479.731H433.661C435.245 479.674 436.83 479.85 438.364 480.253C439.455 480.579 440.401 481.27 441.044 482.21C441.52 482.892 441.851 483.665 442.015 484.48C442.18 485.296 442.175 486.136 442 486.95C441.825 487.763 441.485 488.532 441 489.208C440.515 489.884 439.896 490.453 439.181 490.879C438.455 491.287 437.667 491.576 436.85 491.737C437.46 491.917 438.043 492.183 438.578 492.527C438.975 492.858 439.331 493.236 439.637 493.653C439.988 494.071 440.301 494.52 440.575 494.993L443.791 501.223H436.287L432.736 494.658C432.451 494.028 432.041 493.462 431.53 492.996C431.055 492.665 430.488 492.491 429.909 492.5H429.319V501.223L422.593 501.17ZM429.292 488.387H432.093C432.685 488.336 433.272 488.237 433.848 488.092C434.283 488.009 434.671 487.765 434.934 487.409C435.24 486.985 435.385 486.465 435.34 485.943C435.296 485.422 435.066 484.934 434.692 484.568C433.947 484.122 433.077 483.929 432.213 484.018H429.292V488.387Z" fill="white"/>
<path d="M445.948 501.17V479.731H457.016C458.605 479.673 460.194 479.849 461.733 480.253C462.825 480.577 463.771 481.268 464.412 482.21C464.889 482.892 465.22 483.665 465.384 484.48C465.549 485.296 465.543 486.136 465.369 486.95C465.194 487.763 464.853 488.532 464.368 489.208C463.883 489.884 463.264 490.453 462.55 490.879C461.823 491.287 461.036 491.576 460.218 491.737C460.829 491.917 461.411 492.183 461.947 492.527C462.349 492.857 462.709 493.235 463.019 493.653C463.362 494.074 463.671 494.522 463.943 494.993L467.159 501.223H459.602L456.051 494.658C455.771 494.025 455.36 493.459 454.845 492.996C454.373 492.66 453.804 492.486 453.224 492.5H452.634V501.223L445.948 501.17ZM452.648 488.387H455.448C456.04 488.337 456.628 488.238 457.204 488.092C457.639 488.009 458.026 487.765 458.289 487.409C458.568 487.054 458.715 486.613 458.704 486.162C458.722 485.864 458.672 485.566 458.558 485.29C458.445 485.014 458.27 484.767 458.048 484.568C457.302 484.122 456.433 483.929 455.569 484.018H452.648V488.387Z" fill="white"/>
<path d="M467.87 490.437C467.722 488.94 467.908 487.43 468.414 486.014C468.919 484.598 469.733 483.311 470.795 482.247C471.857 481.182 473.141 480.366 474.556 479.857C475.971 479.348 477.481 479.158 478.978 479.302C480.478 479.206 481.983 479.412 483.403 479.907C484.822 480.401 486.129 481.175 487.245 482.183C488.244 483.259 489.015 484.526 489.512 485.907C490.01 487.289 490.223 488.756 490.139 490.222C490.222 492.353 489.79 494.472 488.88 496.4C488.052 497.984 486.775 499.289 485.208 500.151C483.365 501.105 481.306 501.566 479.232 501.491C477.166 501.56 475.111 501.166 473.216 500.339C471.588 499.533 470.243 498.253 469.357 496.668C468.312 494.761 467.799 492.609 467.87 490.437ZM474.569 490.437C474.423 492.088 474.849 493.739 475.775 495.113C476.203 495.558 476.716 495.912 477.283 496.153C477.851 496.395 478.461 496.519 479.078 496.519C479.695 496.519 480.305 496.395 480.873 496.153C481.441 495.912 481.954 495.558 482.381 495.113C483.317 493.624 483.731 491.866 483.56 490.115C483.686 488.538 483.249 486.966 482.328 485.68C481.906 485.226 481.39 484.87 480.816 484.639C480.241 484.407 479.623 484.305 479.004 484.34C478.396 484.318 477.79 484.434 477.233 484.68C476.676 484.926 476.182 485.296 475.789 485.76C474.83 487.132 474.38 488.796 474.516 490.464L474.569 490.437Z" fill="white"/>
<path d="M493.811 501.17V479.731H504.879C506.464 479.674 508.048 479.85 509.582 480.253C510.673 480.579 511.619 481.27 512.262 482.21C512.738 482.892 513.069 483.665 513.234 484.48C513.398 485.296 513.393 486.136 513.218 486.95C513.043 487.763 512.703 488.532 512.218 489.208C511.733 489.884 511.114 490.453 510.399 490.879C509.673 491.287 508.886 491.576 508.068 491.737C508.679 491.917 509.261 492.183 509.796 492.527C510.193 492.858 510.549 493.236 510.855 493.653C511.206 494.071 511.52 494.52 511.793 494.993L515.009 501.223H507.505L503.954 494.658C503.669 494.028 503.259 493.462 502.748 492.996C502.273 492.665 501.706 492.491 501.127 492.5H500.537V501.223L493.811 501.17ZM500.511 488.387H503.311C503.903 488.336 504.49 488.237 505.066 488.092C505.501 488.009 505.889 487.765 506.152 487.409C506.458 486.985 506.603 486.465 506.559 485.943C506.514 485.422 506.284 484.934 505.911 484.568C505.165 484.122 504.296 483.929 503.432 484.018H500.511V488.387Z" fill="white"/>
<path d="M571.488 150.934C565.858 149.145 559.975 148.281 554.068 148.375C548.334 148.408 542.655 149.503 537.319 151.604C535.078 152.485 532.971 153.675 531.061 155.142C530.874 155.302 530.659 155.45 530.512 155.597C530.365 155.745 530.217 155.852 529.976 156.106C529.735 156.361 529.105 157.004 528.636 157.446C527.78 158.417 526.988 159.442 526.264 160.515C523.27 164.917 521.369 169.97 520.717 175.254C520.398 177.757 520.43 180.291 520.811 182.785C520.99 183.957 521.263 185.113 521.628 186.242C521.992 187.372 522.44 188.474 522.968 189.538C524.438 192.291 526.099 194.937 527.939 197.457C529.989 200.378 532.361 203.567 534.639 207.467C537.289 211.785 539.179 216.525 540.227 221.482C540.76 224.272 540.958 227.115 540.816 229.951C540.656 232.733 540.166 235.485 539.356 238.151C537.792 243.259 535.192 247.989 531.718 252.047C530.005 254.04 528.097 255.858 526.023 257.473C524.021 259.049 521.877 260.435 519.618 261.614C515.26 263.862 510.576 265.413 505.736 266.21C501.208 266.96 496.607 267.176 492.029 266.853C487.663 266.543 483.335 265.835 479.098 264.736C475.119 263.704 471.204 262.438 467.374 260.944C459.924 258.09 453.17 254.82 446.725 252.047C440.755 249.306 434.512 247.204 428.1 245.776C425.194 245.186 422.235 244.889 419.27 244.891C416.261 244.901 413.261 245.188 410.305 245.749C404.075 247.021 398.05 249.149 392.404 252.073C380.693 257.983 369.866 266.987 358.664 276.42C356.637 278.133 354.015 278.975 351.37 278.762C348.725 278.549 346.272 277.299 344.545 275.284C342.819 273.269 341.959 270.653 342.154 268.007C342.349 265.36 343.583 262.899 345.586 261.158C356.64 251.524 368.285 241.193 382.729 233.475C390.073 229.493 397.939 226.561 406.098 224.765C410.343 223.868 414.663 223.37 419.002 223.278C423.389 223.18 427.775 223.526 432.093 224.31C440.077 225.872 447.871 228.284 455.341 231.505C462.443 234.413 468.995 237.401 475.32 239.679C478.353 240.796 481.449 241.735 484.592 242.493C487.485 243.189 490.437 243.61 493.409 243.752C498.634 244.179 503.876 243.164 508.564 240.818C509.549 240.27 510.481 239.633 511.351 238.915C512.161 238.25 512.905 237.51 513.575 236.704C514.86 235.127 515.809 233.303 516.362 231.344C516.611 230.472 516.746 229.571 516.764 228.665C516.786 227.827 516.705 226.99 516.523 226.172C515.941 223.957 514.999 221.852 513.736 219.942C512.249 217.53 510.212 214.823 507.974 211.781C505.391 208.381 503.058 204.799 500.993 201.062C499.824 198.871 498.821 196.595 497.992 194.255C497.18 191.904 496.553 189.494 496.116 187.046C495.267 182.284 495.082 177.427 495.566 172.615C496.501 163.234 499.671 154.214 504.812 146.311C506.105 144.312 507.523 142.396 509.059 140.576C509.85 139.665 510.654 138.768 511.498 137.897C511.887 137.481 512.45 136.959 512.945 136.49C513.441 136.021 513.964 135.592 514.473 135.15C518.3 132.016 522.561 129.453 527.122 127.539C535.426 124.063 544.305 122.163 553.305 121.938C562.096 121.658 570.874 122.803 579.3 125.328C582.493 126.507 585.118 128.857 586.641 131.901C588.164 134.945 588.472 138.455 587.502 141.718C586.531 144.981 584.355 147.752 581.416 149.469C578.476 151.185 574.994 151.719 571.675 150.961L571.488 150.934Z" fill="#263238"/>
<path d="M571.166 152.02C563.966 149.579 556.335 148.666 548.762 149.34C545.109 149.672 541.51 150.446 538.043 151.644C535.173 152.624 532.491 154.083 530.11 155.959L529.346 156.616C526.821 158.934 523.479 160.155 520.054 160.01C516.629 159.864 513.402 158.363 511.083 155.838C508.764 153.314 507.543 149.971 507.689 146.546C507.835 143.121 509.335 139.894 511.86 137.575C516.554 132.984 522.091 129.344 528.167 126.855C533.636 124.576 539.365 122.978 545.225 122.099C556.722 120.41 568.446 121.158 579.635 124.296C583.348 125.312 586.506 127.762 588.413 131.107C590.321 134.452 590.821 138.417 589.805 142.131C588.788 145.844 586.338 149.002 582.994 150.91C579.649 152.817 575.684 153.317 571.97 152.301L571.26 152.087L571.166 152.02Z" fill="#9BCEFF"/>
<path d="M321.319 317.852L326.291 325.596C321.293 328.209 316.067 327.821 310.734 327.821C308.469 317.342 321.319 317.852 321.319 317.852Z" fill="#263238"/>
<path d="M291.023 276.514C297.361 294.751 320.864 318.937 320.864 318.937C320.864 318.937 310.948 320.92 313.642 327.767H327.483L357.284 322.153C358.278 321.921 359.147 321.32 359.714 320.472C360.281 319.623 360.505 318.591 360.339 317.584L349.338 280.681L291.023 276.514Z" fill="#9BCEFF"/>
<path d="M406.62 286.952L409.3 297.819C414.553 295.742 418.988 294.322 421.266 289.445C418.626 282.664 406.62 286.952 406.62 286.952Z" fill="#263238"/>
<path d="M383.091 231.197C392.471 248 412.248 288.976 412.248 288.976C412.248 288.976 422.405 289.405 421.052 296.546L381.671 306.274C380.793 306.579 379.839 306.585 378.957 306.292C378.075 305.999 377.314 305.423 376.793 304.653L348.654 280.829C364.01 271.449 381.885 246.834 383.091 231.197Z" fill="#9BCEFF"/>
<path opacity="0.1" d="M364.841 266.451C360.229 272.035 354.809 276.899 348.762 280.882L356.801 287.435C365.471 279.676 367.936 271.369 364.841 266.451Z" fill="black"/>
<path d="M354.818 182.41C365.752 184.272 411.163 178.108 414.54 177.948C414.901 175.442 416.054 169.238 418.774 170.337C421.494 171.436 422.887 176.125 422.338 178.376C428.783 177.224 437.252 190.436 427.617 201.156C413.508 216.994 361.96 219.419 361.96 219.419C361.96 219.419 333.995 185.036 354.818 182.41Z" fill="#9BCEFF"/>
<path opacity="0.1" d="M358.222 203.487C356.043 203.246 353.837 203.488 351.763 204.197C354.755 209.536 358.169 214.626 361.973 219.419C361.973 219.419 372.371 218.923 385.101 216.967C378.093 211.955 366.985 204.894 358.222 203.487Z" fill="black"/>
<path d="M422.338 178.336C428.85 175.656 433.406 174.316 434.907 176.554C436.408 178.792 434.398 183.495 428.1 184.714C422.325 181.097 422.338 178.336 422.338 178.336Z" fill="#9BCEFF"/>
<path d="M426.572 183.91C433.433 183.683 438.029 184.085 438.632 186.59C439.235 189.096 435.778 192.741 429.641 191.682C425.608 186.43 426.572 183.91 426.572 183.91Z" fill="#9BCEFF"/>
<path d="M430.9 190.918C435.309 192.968 438.015 194.764 437.212 196.921C436.408 199.079 432.589 200.74 429.172 197.926C429.132 192.54 430.9 190.918 430.9 190.918Z" fill="#9BCEFF"/>
<path d="M270.87 216.672C265.832 226.548 233.727 259.242 231.57 261.869C229.345 260.649 223.691 257.849 222.954 260.703C222.217 263.557 225.125 267.47 227.215 268.341C222.445 272.816 227.925 287.488 242.356 286.229C263.487 284.38 296.249 244.543 296.249 244.543C296.249 244.543 285.409 201.544 270.87 216.672Z" fill="#9BCEFF"/>
<path opacity="0.1" d="M285.717 232.001C286.837 230.115 288.35 228.493 290.152 227.244C292.648 232.837 294.687 238.622 296.249 244.543C296.249 244.543 289.643 252.583 280.451 261.601C280.625 252.998 281.603 239.867 285.717 232.001Z" fill="black"/>
<path d="M227.215 268.341C221.145 271.932 217.38 274.813 218.277 277.345C219.175 279.878 224.146 281.097 228.89 276.782C229.439 269.989 227.215 268.341 227.215 268.341Z" fill="#9BCEFF"/>
<path d="M229.131 275.081C224.843 280.44 222.431 284.353 224.12 286.35C225.808 288.346 230.739 287.689 233.566 282.169C231.811 275.804 229.131 275.081 229.131 275.081Z" fill="#9BCEFF"/>
<path d="M232.186 282.732C231.181 287.488 231.007 290.771 233.231 291.388C235.456 292.004 239.047 289.967 238.805 285.572C234.491 282.289 232.186 282.732 232.186 282.732Z" fill="#9BCEFF"/>
<path opacity="0.1" d="M349.365 280.815V280.735L331.543 279.395C331.181 287.073 340.119 291.937 352.125 289.873L349.365 280.815Z" fill="black"/>
<path d="M352.661 188.573L315.893 204.318L279.138 220.062C279.138 220.062 283.051 267.577 295.11 283.857C307.17 300.137 330.458 295.126 351.026 286.309C371.594 277.492 391.225 264.106 387.821 244.141C384.418 224.176 352.661 188.573 352.661 188.573Z" fill="#9BCEFF"/>
<path opacity="0.2" d="M336.662 197.457L316.643 206.033L296.638 214.609C296.932 210.709 288.759 246.982 302.694 266.317C311.779 278.913 328.743 275.456 343.656 269.064C358.57 262.672 372.76 252.784 369.906 237.522C365.538 214.113 333.647 195.019 336.662 197.457Z" fill="white"/>
<path opacity="0.2" d="M330.297 203.112L316.898 208.82L303.565 214.542C303.659 211.728 299.036 237.816 308.925 252.181C315.397 261.56 326.8 259.47 336.742 255.209C346.685 250.948 356.064 244.128 353.746 232.979C350.276 215.895 328.18 201.249 330.297 203.112Z" fill="white"/>
<path opacity="0.2" d="M236.538 280.997C239.073 279.98 240.062 276.5 238.748 273.224C237.433 269.948 234.313 268.116 231.779 269.133C229.244 270.15 228.255 273.63 229.57 276.906C230.884 280.182 234.004 282.014 236.538 280.997Z" fill="white"/>
<path opacity="0.2" d="M428.086 190.543C428.341 194.067 426.344 197.082 423.624 197.243C420.904 197.404 418.479 194.751 418.265 191.24C418.05 187.729 420.007 184.701 422.727 184.54C425.447 184.379 427.832 187.033 428.086 190.543Z" fill="white"/>
<path d="M235.415 102.321C181.992 64.5077 99.9065 87.7022 93.4613 101.986C86.6142 117.194 160.954 158.157 179.218 197.739C205.883 148.201 235.415 102.321 235.415 102.321Z" fill="#263238"/>
<path opacity="0.5" d="M215.731 117.824C173.443 88.3454 113.815 101.611 109.956 111.661C105.842 122.38 163.929 155.008 180.156 184.353C196.704 149.715 215.731 117.824 215.731 117.824Z" fill="#9BCEFF"/>
<path d="M220.998 110.669C209.018 111.473 198.875 115.493 189.938 124.926C193.965 123.635 198.258 123.407 202.399 124.264C206.54 125.12 210.39 127.033 213.574 129.817L220.998 110.669Z" fill="#263238"/>
<path d="M299.344 74.9191C325.018 -6.09417 416.456 -6.41576 434.679 5.84476C448.521 15.2244 389.576 52.6491 405.374 106.676C352.205 88.4793 299.344 74.9191 299.344 74.9191Z" fill="#263238"/>
<path opacity="0.5" d="M323.504 73.1637C344.943 26.2655 394.95 7.50622 418.305 11.7003C440.387 15.6397 374.408 67.1339 387.888 112.464C356.024 91.0252 323.504 73.1637 323.504 73.1637Z" fill="#9BCEFF"/>
<path d="M322.043 65.9279C326.176 63.6898 330.711 62.2924 335.386 61.8164C340.062 61.3403 344.785 61.795 349.284 63.1543C345.978 63.8952 342.92 65.4792 340.408 67.7521C337.895 70.025 336.014 72.9095 334.947 76.1249L322.043 65.9279Z" fill="#263238"/>
<path d="M323.155 62.1226C325.891 59.5641 329.107 57.5722 332.616 56.2614C336.125 54.9506 339.859 54.3468 343.603 54.4849C341.202 55.725 339.163 57.565 337.684 59.826C336.205 62.0871 335.336 64.6923 335.161 67.3886L323.155 62.1226Z" fill="#263238"/>
<path d="M421.186 110.816C434.692 142.332 385.972 180.494 318.144 209.557C250.316 238.62 189.08 247.571 175.533 216.042C161.986 184.513 194.614 108.699 262.442 79.6357C330.27 50.5722 407.679 79.2873 421.186 110.816Z" fill="#9BCEFF"/>
<path opacity="0.1" d="M394.414 113.818C406.929 143.042 368.767 176.541 314.017 199.99C259.266 223.439 208.71 227.955 196.195 198.717C183.68 169.479 213.936 117.556 268.659 94.1205C323.383 70.6848 381.885 84.5801 394.414 113.818Z" fill="black"/>
<path d="M284.297 156.415C283.117 153.654 286.722 150.492 291.881 148.268C297.04 146.043 301.837 145.588 303.016 148.388C304.195 151.189 302.386 158.492 297.214 160.716C292.041 162.94 285.476 159.175 284.297 156.415Z" fill="#263238"/>
<path opacity="0.3" d="M295.244 181.03C294.454 179.154 298.246 176.433 303.418 174.223C308.59 172.012 313.173 171.141 313.963 173.003C314.754 174.866 312.181 180.413 307.022 182.624C301.863 184.835 296.048 182.892 295.244 181.03Z" fill="black"/>
<path opacity="0.4" d="M199.532 158.291C206.915 137.146 223.785 121.456 240.99 117.529C269.999 110.91 278.508 147.236 264.492 172.28C248.842 200.311 214.271 196.037 210.894 183.214C206.03 191.749 186.253 196.211 199.532 158.291Z" fill="white"/>
<path d="M264.506 134.48C264.506 134.48 262.536 160.22 248.949 169.318C235.362 178.417 215.289 167.268 215.289 167.268C215.289 167.268 217.259 141.541 230.846 132.43C244.433 123.318 264.506 134.48 264.506 134.48Z" fill="white"/>
<path d="M215.289 167.134C215.166 160.83 216.072 154.549 217.969 148.536C218.902 145.459 220.188 142.5 221.802 139.719C223.431 136.835 225.569 134.27 228.113 132.148C230.734 130.01 233.832 128.535 237.144 127.847C240.361 127.164 243.676 127.073 246.926 127.579C253.217 128.503 259.218 130.84 264.479 134.413C258.764 132.22 252.761 130.866 246.658 130.393C243.73 130.197 240.79 130.468 237.948 131.197C235.172 131.838 232.591 133.134 230.417 134.976C228.165 136.807 226.248 139.015 224.749 141.501L224.133 142.426L223.584 143.404C223.235 144.06 222.847 144.744 222.512 145.374C221.882 146.713 221.172 148.053 220.649 149.487C218.364 155.206 216.571 161.11 215.289 167.134Z" fill="#263238"/>
<path d="M300.751 118.883C300.751 118.883 320.743 135.217 336.648 131.612C352.554 128.008 358.382 105.832 358.382 105.832C358.382 105.832 338.404 89.4977 322.485 93.1021C306.567 96.7066 300.751 118.883 300.751 118.883Z" fill="white"/>
<path d="M358.382 105.832C353.135 102.618 347.626 99.852 341.914 97.5642C340.574 97.0015 339.06 96.5727 337.64 96.0903C336.93 95.8625 336.193 95.7017 335.469 95.5007L334.397 95.2193L333.298 95.0317C330.466 94.4072 327.548 94.2712 324.669 94.6298C321.837 94.9441 319.12 95.9219 316.737 97.4838C314.249 99.0339 312.027 100.975 310.158 103.232C306.287 107.965 303.127 113.238 300.778 118.883C301.814 112.61 304.261 106.654 307.933 101.463C309.81 98.7623 312.162 96.4242 314.874 94.5628C317.668 92.636 320.886 91.4132 324.254 90.9985C327.541 90.6224 330.868 90.8448 334.076 91.6551C337.176 92.4065 340.179 93.5125 343.027 94.9513C348.701 97.7212 353.888 101.396 358.382 105.832Z" fill="#263238"/>
<path d="M251.733 164.669C259.52 162.775 264.298 154.926 262.404 147.139C260.51 139.351 252.661 134.573 244.874 136.468C237.086 138.362 232.308 146.21 234.202 153.998C236.097 161.785 243.945 166.563 251.733 164.669Z" fill="#263238"/>
<path d="M236.648 151.43C237.127 152.539 237.924 153.481 238.938 154.137C239.952 154.793 241.137 155.134 242.345 155.116C243.553 155.099 244.728 154.724 245.723 154.039C246.717 153.354 247.487 152.39 247.934 151.268C248.38 150.146 248.485 148.917 248.234 147.735C247.982 146.554 247.387 145.474 246.522 144.631C245.657 143.788 244.561 143.22 243.374 142.999C242.187 142.779 240.961 142.915 239.851 143.39C239.112 143.707 238.442 144.166 237.881 144.742C237.32 145.318 236.878 145.999 236.581 146.746C236.283 147.492 236.136 148.291 236.148 149.095C236.159 149.898 236.329 150.692 236.648 151.43Z" fill="white"/>
<path d="M336.536 123.93C339.513 116.489 335.895 108.043 328.454 105.066C321.013 102.088 312.567 105.706 309.59 113.147C306.612 120.588 310.23 129.034 317.671 132.011C325.112 134.989 333.558 131.371 336.536 123.93Z" fill="#263238"/>
<path d="M311.404 119.392C311.883 120.5 312.68 121.442 313.694 122.098C314.708 122.754 315.893 123.095 317.101 123.078C318.308 123.061 319.484 122.686 320.478 122.001C321.473 121.316 322.242 120.351 322.689 119.23C323.136 118.108 323.241 116.878 322.989 115.697C322.738 114.516 322.142 113.436 321.277 112.593C320.412 111.75 319.317 111.182 318.13 110.961C316.943 110.74 315.716 110.876 314.606 111.352C313.866 111.667 313.196 112.126 312.634 112.701C312.072 113.277 311.629 113.958 311.331 114.705C311.034 115.453 310.887 116.251 310.899 117.056C310.912 117.86 311.083 118.654 311.404 119.392Z" fill="white"/>
<path d="M250.436 151.457C250.629 151.898 250.948 152.273 251.353 152.533C251.759 152.794 252.232 152.928 252.714 152.92C253.195 152.912 253.664 152.761 254.06 152.487C254.456 152.213 254.762 151.827 254.939 151.379C255.116 150.931 255.157 150.441 255.056 149.97C254.955 149.499 254.717 149.068 254.371 148.733C254.026 148.397 253.588 148.171 253.115 148.084C252.641 147.996 252.152 148.051 251.709 148.241C251.115 148.5 250.648 148.984 250.409 149.586C250.171 150.189 250.18 150.861 250.436 151.457Z" fill="white"/>
<path d="M325.192 119.419C325.377 119.862 325.69 120.242 326.09 120.508C326.49 120.775 326.961 120.917 327.441 120.917C327.922 120.917 328.393 120.775 328.793 120.509C329.194 120.242 329.506 119.864 329.692 119.42C329.878 118.976 329.928 118.488 329.836 118.015C329.745 117.543 329.516 117.109 329.178 116.766C328.841 116.424 328.409 116.189 327.938 116.091C327.467 115.993 326.978 116.037 326.532 116.216C326.231 116.335 325.957 116.513 325.726 116.74C325.495 116.966 325.312 117.237 325.187 117.535C325.062 117.834 324.998 118.154 324.999 118.477C325 118.801 325.066 119.121 325.192 119.419Z" fill="white"/>
<path d="M317.407 165.124C316.67 165.593 315.933 166.076 315.169 166.464C314.405 166.853 313.561 167.228 312.717 167.536C310.993 168.139 309.183 168.46 307.357 168.488C305.479 168.462 303.625 168.061 301.904 167.308C300.133 166.532 298.561 165.364 297.308 163.892L299.492 162.954C299.686 164.88 299.448 166.826 298.795 168.648C298.152 170.412 297.164 172.029 295.887 173.405C294.613 174.71 293.133 175.797 291.506 176.621C290.702 177.007 289.879 177.352 289.04 177.653C288.183 177.907 287.325 178.122 286.481 178.323C287.245 177.867 288.008 177.452 288.759 176.983C289.509 176.514 290.206 176.085 290.876 175.549C292.202 174.563 293.396 173.41 294.427 172.119C295.393 170.841 296.127 169.403 296.597 167.871C296.83 167.115 296.991 166.339 297.08 165.553C297.167 164.805 297.167 164.05 297.08 163.302C297.049 162.987 297.14 162.673 297.335 162.423C297.529 162.174 297.812 162.009 298.125 161.962C298.338 161.935 298.554 161.962 298.754 162.042C298.953 162.122 299.129 162.251 299.264 162.418C299.751 162.993 300.294 163.518 300.885 163.985C301.521 164.449 302.193 164.862 302.895 165.218C304.331 165.922 305.876 166.376 307.464 166.558C309.115 166.707 310.778 166.635 312.409 166.344C313.253 166.237 314.07 165.969 314.915 165.808C315.759 165.647 316.563 165.366 317.407 165.124Z" fill="#263238"/>
<path d="M298.286 164.428C298.047 164.425 297.814 164.355 297.615 164.224C297.415 164.093 297.258 163.908 297.16 163.691L293.448 154.968C293.323 154.671 293.321 154.336 293.441 154.038C293.562 153.739 293.796 153.5 294.092 153.373C294.239 153.307 294.398 153.271 294.56 153.268C294.721 153.265 294.882 153.294 295.032 153.354C295.182 153.414 295.318 153.504 295.433 153.617C295.548 153.731 295.638 153.867 295.7 154.016L299.438 162.726C299.518 162.912 299.551 163.115 299.533 163.316C299.515 163.518 299.447 163.712 299.335 163.881C299.223 164.05 299.072 164.188 298.893 164.284C298.714 164.379 298.515 164.429 298.312 164.428H298.286Z" fill="#263238"/>
<path d="M176.498 183.026C165.631 188.131 157.739 198.985 155.769 211.835C165.363 200.124 176.551 203.567 176.551 203.567L176.498 183.026Z" fill="#9BCEFF"/>
<path d="M177.61 214.689C175.713 219.006 174.899 223.72 175.237 228.423C175.576 233.126 177.057 237.675 179.553 241.676C179.446 230.152 187.673 226.722 187.673 226.722L177.61 214.689Z" fill="#9BCEFF"/>
<path d="M176.98 197.002C166.033 205.175 159.762 219.071 160.418 233.864C168.458 218.602 181.724 219.901 181.724 219.901L176.98 197.002Z" fill="#9BCEFF"/>
<path d="M396.625 88.7072C407.813 84.3657 421.079 86.1881 431.785 93.5712C416.684 92.4456 411.458 102.951 411.458 102.951L396.625 88.7072Z" fill="#9BCEFF"/>
<path d="M415.196 110.816C424.214 109.356 434.049 110.495 440.079 116.364C432.677 116.359 425.511 118.969 419.846 123.733L415.196 110.816Z" fill="#9BCEFF"/>
<path d="M412.181 109.503C420.368 113.523 427.684 120.223 429.158 128.517C423.148 124.191 415.8 122.131 408.416 122.702L412.181 109.503Z" fill="#9BCEFF"/>
<path d="M406.433 98.7031C419.899 96.4118 434.277 101.463 444.541 112.103C427.952 107.399 419.739 117.891 419.739 117.891L406.433 98.7031Z" fill="#9BCEFF"/>
<path d="M254.59 85.6118C254.081 78.0277 257.739 71.5021 266.797 64.7622C264.894 75.589 272.733 78.2957 272.733 78.2957L254.59 85.6118Z" fill="#9BCEFF"/>
<path d="M264.479 81.391C266.274 72.5742 275.306 63.9717 288.451 58.4377C279.071 68.5409 286.628 74.8119 286.628 74.8119L264.479 81.391Z" fill="#9BCEFF"/>
<path d="M189.723 239.733C189.604 239.728 189.488 239.691 189.388 239.625C189.322 239.581 189.265 239.524 189.221 239.457C189.176 239.39 189.146 239.316 189.131 239.237C189.116 239.158 189.117 239.078 189.133 238.999C189.15 238.921 189.182 238.847 189.227 238.781C224.749 185.693 289.388 164.749 290.032 164.548C290.188 164.501 290.356 164.517 290.501 164.592C290.646 164.667 290.757 164.795 290.809 164.95C290.855 165.105 290.839 165.271 290.764 165.414C290.689 165.557 290.56 165.665 290.407 165.714C289.764 165.915 225.527 186.738 190.232 239.411C190.185 239.506 190.113 239.587 190.023 239.644C189.933 239.7 189.829 239.731 189.723 239.733Z" fill="#263238"/>
<path d="M199.505 273.178C199.438 273.19 199.37 273.19 199.304 273.178C199.149 273.126 199.022 273.015 198.949 272.869C198.876 272.724 198.864 272.555 198.915 272.401C223.436 200.78 287.62 169.747 288.263 169.452C288.407 169.383 288.572 169.374 288.723 169.427C288.874 169.48 288.997 169.59 289.067 169.734C289.103 169.806 289.125 169.884 289.13 169.965C289.136 170.045 289.125 170.126 289.099 170.202C289.073 170.278 289.031 170.348 288.977 170.408C288.924 170.468 288.858 170.517 288.785 170.551C288.142 170.859 224.468 201.678 200.081 272.802C200.032 272.914 199.951 273.009 199.849 273.076C199.746 273.142 199.627 273.178 199.505 273.178Z" fill="#263238"/>
<path d="M305.24 159.309C305.133 159.311 305.027 159.284 304.935 159.229C304.843 159.175 304.767 159.096 304.717 159.001C304.675 158.933 304.646 158.857 304.634 158.777C304.621 158.698 304.625 158.617 304.645 158.539C304.665 158.461 304.701 158.388 304.751 158.325C304.8 158.261 304.862 158.209 304.932 158.17C305.521 157.822 364.573 124.229 427.738 133.796C427.817 133.806 427.893 133.832 427.962 133.872C428.031 133.912 428.091 133.965 428.139 134.029C428.186 134.093 428.22 134.166 428.239 134.243C428.258 134.321 428.261 134.401 428.247 134.48C428.218 134.638 428.13 134.78 428.001 134.877C427.872 134.974 427.711 135.018 427.55 135.002C364.828 125.489 306.138 158.88 305.615 159.229C305.502 159.295 305.37 159.323 305.24 159.309Z" fill="#263238"/>
<path d="M431.972 163.811C431.911 163.825 431.846 163.825 431.785 163.811C357.016 139.692 310.64 161.131 310.171 161.372C310.025 161.442 309.858 161.45 309.706 161.396C309.554 161.342 309.43 161.23 309.36 161.084C309.291 160.939 309.282 160.771 309.337 160.619C309.391 160.467 309.503 160.343 309.648 160.274C310.104 160.046 356.882 138.352 432.16 162.645C432.312 162.7 432.437 162.812 432.51 162.956C432.582 163.101 432.596 163.268 432.548 163.423C432.504 163.539 432.425 163.639 432.322 163.708C432.219 163.778 432.097 163.814 431.972 163.811Z" fill="#263238"/>
<path d="M293.655 491.253C305.204 478.781 304.456 459.307 291.984 447.758C279.511 436.208 260.038 436.956 248.488 449.429C236.939 461.901 237.687 481.375 250.159 492.924C262.632 504.474 282.105 503.726 293.655 491.253Z" fill="#9BCEFF"/>
<path d="M357.431 502.456C342.182 502.456 336.796 496.681 331.597 491.107C329.875 489.16 327.988 487.367 325.956 485.747C318.157 479.798 305.856 477.078 299.652 479.932C299.363 479.98 299.066 479.932 298.806 479.795C298.547 479.658 298.339 479.439 298.216 479.173C298.093 478.906 298.061 478.607 298.124 478.321C298.187 478.034 298.343 477.776 298.567 477.587C305.669 474.331 318.921 477.131 327.523 483.683C329.673 485.409 331.673 487.314 333.499 489.378C338.538 494.805 343.308 499.924 357.431 499.924C360.877 500.015 364.284 499.171 367.29 497.482C370.296 495.792 372.788 493.321 374.502 490.33C375.917 487.982 376.682 485.3 376.717 482.558C376.753 479.817 376.057 477.116 374.703 474.733C371.5 469.574 364.908 466.948 356.118 467.363C355.922 467.425 355.714 467.442 355.511 467.411C355.308 467.38 355.115 467.303 354.946 467.186C354.777 467.068 354.638 466.914 354.539 466.734C354.439 466.554 354.383 466.354 354.373 466.148C354.364 465.943 354.401 465.738 354.484 465.55C354.566 465.362 354.69 465.195 354.847 465.062C355.004 464.93 355.189 464.835 355.389 464.786C355.588 464.736 355.796 464.733 355.997 464.777C365.765 464.335 373.189 467.376 376.9 473.366C378.495 476.143 379.324 479.294 379.3 482.496C379.277 485.698 378.402 488.836 376.766 491.589C374.824 494.977 372.001 497.775 368.597 499.688C365.193 501.601 361.334 502.558 357.431 502.456Z" fill="#9BCEFF"/>
<path d="M284.069 493.854C267.851 493.689 252.22 487.762 239.971 477.131C239.813 476.885 239.739 476.594 239.762 476.302C239.784 476.01 239.902 475.734 240.096 475.515C240.29 475.296 240.551 475.147 240.838 475.091C241.126 475.034 241.423 475.073 241.686 475.202C252.406 484.769 271.54 493.827 292.886 490.611C293.074 490.529 293.279 490.491 293.484 490.5C293.689 490.51 293.89 490.566 294.07 490.665C294.25 490.764 294.404 490.904 294.522 491.072C294.64 491.241 294.717 491.434 294.748 491.638C294.778 491.841 294.762 492.048 294.7 492.244C294.638 492.44 294.531 492.619 294.389 492.767C294.246 492.915 294.072 493.029 293.879 493.099C293.685 493.169 293.479 493.193 293.274 493.17C290.227 493.627 287.15 493.855 284.069 493.854Z" fill="#9BCEFF"/>
<path d="M280.692 497.686C264.894 497.686 251.401 491.469 239.623 478.793C239.393 478.545 239.265 478.219 239.265 477.882C239.265 477.544 239.393 477.218 239.623 476.97C239.871 476.737 240.2 476.607 240.541 476.607C240.882 476.607 241.21 476.737 241.459 476.97C254.496 491.013 269.731 496.761 288.022 494.591C288.213 494.511 288.42 494.476 288.627 494.489C288.834 494.503 289.034 494.564 289.214 494.668C289.393 494.773 289.545 494.917 289.659 495.09C289.773 495.263 289.845 495.461 289.87 495.666C289.895 495.872 289.871 496.081 289.802 496.276C289.732 496.471 289.618 496.648 289.469 496.791C289.32 496.935 289.139 497.043 288.942 497.105C288.744 497.167 288.535 497.182 288.33 497.15C285.797 497.482 283.247 497.661 280.692 497.686Z" fill="#9BCEFF"/>
<path d="M257.35 499.24C257.017 499.242 256.695 499.119 256.447 498.896C256.199 498.673 256.044 498.366 256.01 498.034C254.885 482.92 260.097 458.854 274.247 439.17C274.475 438.985 274.757 438.88 275.05 438.871C275.344 438.861 275.632 438.949 275.871 439.119C276.11 439.289 276.286 439.534 276.373 439.814C276.46 440.095 276.452 440.396 276.351 440.671C262.63 459.846 257.551 483.201 258.61 497.847C258.612 498.178 258.491 498.498 258.271 498.746C258.051 498.993 257.747 499.15 257.417 499.187L257.35 499.24Z" fill="#9BCEFF"/>
<path d="M244.5 487.248C244.254 487.246 244.013 487.177 243.803 487.047C243.523 486.856 243.326 486.566 243.252 486.235C243.177 485.904 243.231 485.557 243.402 485.265C247.904 478.15 264.626 454.285 290.836 445.91C291.161 445.819 291.509 445.854 291.809 446.008C292.11 446.162 292.341 446.424 292.457 446.741C292.548 447.066 292.514 447.414 292.36 447.715C292.205 448.015 291.944 448.247 291.626 448.362C266.248 456.483 249.967 479.717 245.586 486.645C245.467 486.825 245.306 486.975 245.117 487.08C244.928 487.185 244.716 487.242 244.5 487.248Z" fill="#9BCEFF"/>
<path d="M244.5 487.248C244.335 487.249 244.171 487.217 244.018 487.154C243.708 487.018 243.461 486.769 243.327 486.459C243.193 486.148 243.181 485.798 243.294 485.479C247.257 475.736 253.251 466.949 260.875 459.704C268.5 452.458 277.58 446.92 287.513 443.458C287.806 443.437 288.098 443.513 288.343 443.675C288.589 443.836 288.775 444.073 288.872 444.35C288.97 444.628 288.973 444.929 288.883 445.209C288.792 445.488 288.612 445.73 288.37 445.897C278.778 449.232 270.006 454.573 262.64 461.565C255.274 468.556 249.483 477.038 245.653 486.444C245.554 486.671 245.394 486.867 245.19 487.009C244.987 487.151 244.748 487.234 244.5 487.248Z" fill="#9BCEFF"/>
<path d="M253.531 496.989C253.206 496.992 252.891 496.877 252.645 496.665C252.398 496.453 252.237 496.159 252.191 495.837C248.949 467.912 258.114 451.94 268.512 438.849C268.731 438.592 269.039 438.427 269.374 438.387C269.71 438.347 270.048 438.436 270.321 438.634C270.582 438.854 270.749 439.165 270.789 439.503C270.829 439.842 270.738 440.183 270.535 440.457C260.486 453.119 251.629 468.596 254.764 495.542C254.792 495.881 254.689 496.218 254.478 496.484C254.266 496.75 253.962 496.926 253.625 496.976L253.531 496.989Z" fill="#9BCEFF"/>
<path d="M249.941 494.068C249.661 494.061 249.39 493.967 249.167 493.799C248.943 493.631 248.778 493.397 248.694 493.13C244.675 478.324 247.663 455.169 264.064 439.291C264.311 439.061 264.637 438.934 264.975 438.934C265.313 438.934 265.638 439.061 265.886 439.291C266.12 439.54 266.25 439.868 266.25 440.209C266.25 440.55 266.12 440.878 265.886 441.127C250.945 455.585 247.194 477.868 251.213 492.407C251.294 492.737 251.246 493.085 251.079 493.381C250.912 493.677 250.64 493.899 250.316 494.001L249.941 494.068Z" fill="#9BCEFF"/>
<path d="M301.488 475.979C301.22 475.975 300.958 475.891 300.738 475.738C281.577 461.95 258.208 456.871 243.562 457.97C243.271 457.916 243.005 457.767 242.808 457.546C242.61 457.325 242.491 457.045 242.47 456.749C242.448 456.454 242.526 456.159 242.689 455.912C242.853 455.665 243.094 455.479 243.375 455.384C258.489 454.272 282.555 459.471 302.252 473.634C302.45 473.807 302.593 474.034 302.663 474.287C302.733 474.541 302.727 474.809 302.646 475.059C302.564 475.309 302.411 475.529 302.205 475.693C301.999 475.856 301.75 475.956 301.488 475.979Z" fill="#9BCEFF"/>
<path d="M301.756 472.401C301.576 472.406 301.397 472.369 301.234 472.294C284.055 464.67 258.06 463.665 240.775 469.936C240.607 470.056 240.414 470.136 240.21 470.169C240.006 470.202 239.797 470.187 239.599 470.126C239.402 470.065 239.221 469.959 239.071 469.817C238.922 469.675 238.807 469.499 238.736 469.305C238.665 469.111 238.64 468.903 238.663 468.698C238.686 468.492 238.756 468.295 238.868 468.121C238.98 467.948 239.13 467.802 239.308 467.696C239.485 467.59 239.685 467.526 239.891 467.51C257.739 461.025 284.551 462.07 302.279 469.936C302.583 470.084 302.819 470.342 302.941 470.658C303.063 470.973 303.061 471.323 302.935 471.637C302.829 471.861 302.662 472.051 302.454 472.186C302.246 472.321 302.004 472.395 301.756 472.401Z" fill="#9BCEFF"/>
<path d="M301.703 468.783C301.524 468.781 301.349 468.743 301.185 468.671C301.022 468.6 300.874 468.497 300.751 468.368C288.008 454.513 271.5 449.609 247.153 452.409C246.962 452.489 246.755 452.524 246.548 452.51C246.342 452.497 246.141 452.436 245.962 452.331C245.782 452.227 245.63 452.083 245.516 451.91C245.402 451.736 245.33 451.539 245.305 451.333C245.28 451.128 245.304 450.919 245.373 450.724C245.443 450.529 245.557 450.352 245.706 450.208C245.855 450.065 246.036 449.957 246.233 449.895C246.431 449.833 246.641 449.817 246.845 449.85C271.715 446.956 289.429 452.289 302.6 466.626C302.749 466.817 302.842 467.044 302.872 467.284C302.901 467.524 302.866 467.767 302.768 467.988C302.671 468.209 302.515 468.4 302.318 468.54C302.121 468.68 301.89 468.764 301.649 468.783H301.703Z" fill="#9BCEFF"/>
<path d="M300.738 463.531C300.396 463.522 300.07 463.383 299.827 463.142C283.895 447.25 261.424 444.959 251.254 448.403C250.959 448.422 250.666 448.344 250.421 448.18C250.176 448.016 249.991 447.775 249.897 447.496C249.802 447.216 249.802 446.913 249.897 446.634C249.993 446.354 250.177 446.114 250.423 445.951C261.209 442.293 284.953 444.611 301.649 461.306C301.879 461.554 302.006 461.88 302.006 462.218C302.006 462.555 301.879 462.881 301.649 463.129C301.408 463.375 301.082 463.519 300.738 463.531Z" fill="#9BCEFF"/>
<path d="M294.788 491.321C294.669 491.341 294.546 491.341 294.427 491.321C263.608 482.196 240.949 461.481 240.735 461.266C240.581 461.018 240.512 460.726 240.539 460.435C240.567 460.145 240.688 459.871 240.885 459.655C241.083 459.44 241.345 459.295 241.632 459.242C241.919 459.189 242.216 459.232 242.477 459.363C242.705 459.578 264.948 479.891 295.164 488.842C295.422 488.966 295.633 489.169 295.768 489.422C295.902 489.675 295.952 489.964 295.91 490.247C295.868 490.53 295.736 490.792 295.534 490.995C295.333 491.198 295.071 491.331 294.788 491.375V491.321Z" fill="#9BCEFF"/>
<path d="M295.405 490.531C295.23 490.528 295.057 490.492 294.896 490.423C276.248 482.097 258.382 472.119 241.512 460.61C241.316 460.541 241.139 460.428 240.994 460.279C240.85 460.131 240.742 459.95 240.678 459.753C240.615 459.555 240.599 459.346 240.63 459.141C240.662 458.936 240.741 458.741 240.861 458.571C240.98 458.402 241.138 458.263 241.321 458.164C241.503 458.066 241.706 458.012 241.914 458.006C242.121 457.999 242.327 458.041 242.516 458.128C242.704 458.215 242.87 458.344 242.999 458.506C259.721 469.913 277.43 479.801 295.914 488.052C296.153 488.194 296.341 488.408 296.454 488.662C296.566 488.917 296.596 489.2 296.54 489.472C296.484 489.744 296.345 489.993 296.141 490.182C295.938 490.372 295.681 490.494 295.405 490.531Z" fill="#9BCEFF"/>
<path d="M296.544 488.936C296.333 488.94 296.126 488.889 295.941 488.789C269.584 474.612 241.954 460.851 241.686 460.717C241.467 460.522 241.318 460.261 241.262 459.973C241.205 459.686 241.245 459.388 241.374 459.125C241.503 458.861 241.715 458.648 241.977 458.517C242.239 458.386 242.537 458.344 242.825 458.399C243.107 458.533 270.777 472.321 297.16 486.538C297.382 486.694 297.55 486.914 297.644 487.168C297.738 487.423 297.753 487.699 297.686 487.962C297.619 488.225 297.474 488.461 297.27 488.64C297.066 488.819 296.813 488.931 296.544 488.963V488.936Z" fill="#9BCEFF"/>
<path d="M297.468 487.516C297.182 487.521 296.902 487.426 296.678 487.248C272.746 468.488 242.665 459.779 242.356 459.698C242.102 459.547 241.904 459.316 241.795 459.042C241.685 458.767 241.67 458.463 241.751 458.179C241.832 457.894 242.005 457.644 242.243 457.468C242.481 457.292 242.771 457.2 243.067 457.206C243.375 457.3 273.885 466.117 298.272 485.211C298.53 485.43 298.694 485.738 298.734 486.073C298.774 486.409 298.686 486.747 298.487 487.02C298.367 487.176 298.213 487.303 298.036 487.389C297.86 487.475 297.665 487.518 297.468 487.516Z" fill="#9BCEFF"/>
<path d="M299.934 482.317C299.638 482.316 299.35 482.217 299.117 482.035C277.195 464.026 242.839 459.779 242.544 459.739C242.269 459.63 242.038 459.433 241.886 459.179C241.735 458.924 241.672 458.627 241.707 458.334C241.742 458.04 241.874 457.766 242.081 457.555C242.288 457.344 242.559 457.207 242.852 457.166C243.201 457.166 278.24 461.548 300.765 480.039C301.016 480.263 301.173 480.574 301.205 480.909C301.238 481.244 301.142 481.579 300.939 481.848C300.815 481.993 300.661 482.11 300.487 482.191C300.314 482.272 300.125 482.315 299.934 482.317Z" fill="#9BCEFF"/>
<path d="M259.534 500.285C259.277 500.258 259.032 500.156 258.831 499.992C258.63 499.829 258.481 499.61 258.401 499.364C258.322 499.117 258.316 498.852 258.384 498.602C258.452 498.352 258.591 498.127 258.784 497.954C283.211 480.28 297.16 455.759 297.294 455.518C297.345 455.318 297.441 455.133 297.575 454.977C297.709 454.82 297.877 454.697 298.067 454.616C298.256 454.535 298.462 454.499 298.667 454.51C298.873 454.522 299.073 454.581 299.252 454.682C299.431 454.783 299.585 454.925 299.701 455.095C299.817 455.265 299.892 455.46 299.92 455.664C299.948 455.868 299.929 456.076 299.864 456.271C299.799 456.467 299.69 456.644 299.545 456.791C299.411 457.032 285.181 482.049 260.298 500.044C260.074 500.201 259.808 500.285 259.534 500.285Z" fill="#9BCEFF"/>
<g opacity="0.3">
<path d="M284.069 493.854C267.851 493.689 252.22 487.762 239.971 477.131C239.813 476.885 239.739 476.594 239.762 476.302C239.784 476.01 239.902 475.734 240.096 475.515C240.29 475.296 240.551 475.147 240.838 475.091C241.126 475.034 241.423 475.073 241.686 475.202C252.406 484.769 271.54 493.827 292.886 490.611C293.074 490.529 293.279 490.491 293.484 490.5C293.689 490.51 293.89 490.566 294.07 490.665C294.25 490.764 294.404 490.904 294.522 491.072C294.64 491.241 294.717 491.434 294.748 491.638C294.778 491.841 294.762 492.048 294.7 492.244C294.638 492.44 294.531 492.619 294.389 492.767C294.246 492.915 294.072 493.029 293.879 493.099C293.685 493.169 293.479 493.193 293.274 493.17C290.227 493.627 287.15 493.855 284.069 493.854Z" fill="black"/>
<path d="M280.692 497.686C264.894 497.686 251.401 491.469 239.623 478.793C239.393 478.545 239.265 478.22 239.265 477.882C239.265 477.544 239.393 477.218 239.623 476.97C239.871 476.737 240.2 476.607 240.541 476.607C240.882 476.607 241.21 476.737 241.459 476.97C254.496 491.013 269.731 496.761 288.022 494.591C288.213 494.511 288.42 494.476 288.627 494.489C288.834 494.503 289.034 494.564 289.214 494.669C289.393 494.773 289.545 494.917 289.659 495.09C289.773 495.263 289.845 495.461 289.87 495.666C289.895 495.872 289.871 496.081 289.802 496.276C289.732 496.471 289.618 496.648 289.469 496.792C289.32 496.935 289.139 497.043 288.942 497.105C288.744 497.167 288.535 497.182 288.33 497.15C285.797 497.482 283.247 497.661 280.692 497.686Z" fill="black"/>
<path d="M257.35 499.24C257.017 499.242 256.695 499.119 256.447 498.896C256.199 498.673 256.044 498.366 256.01 498.034C254.885 482.92 260.097 458.854 274.247 439.171C274.475 438.985 274.757 438.88 275.05 438.871C275.344 438.861 275.632 438.949 275.871 439.119C276.11 439.289 276.286 439.534 276.373 439.814C276.46 440.095 276.452 440.396 276.351 440.671C262.63 459.846 257.551 483.201 258.61 497.847C258.612 498.178 258.491 498.498 258.271 498.746C258.051 498.993 257.747 499.15 257.417 499.187L257.35 499.24Z" fill="black"/>
<path d="M244.5 487.248C244.254 487.246 244.013 487.177 243.803 487.047C243.523 486.856 243.326 486.566 243.252 486.235C243.177 485.904 243.231 485.558 243.402 485.265C247.904 478.15 264.626 454.285 290.836 445.91C291.161 445.819 291.509 445.854 291.809 446.008C292.11 446.162 292.341 446.424 292.457 446.741C292.548 447.066 292.514 447.414 292.36 447.715C292.205 448.015 291.944 448.247 291.626 448.363C266.248 456.483 249.967 479.717 245.586 486.645C245.467 486.825 245.306 486.975 245.117 487.08C244.928 487.185 244.716 487.242 244.5 487.248Z" fill="black"/>
<path d="M244.5 487.248C244.335 487.249 244.171 487.217 244.018 487.154C243.708 487.018 243.461 486.769 243.327 486.459C243.193 486.148 243.181 485.798 243.294 485.479C247.257 475.736 253.251 466.949 260.875 459.704C268.5 452.458 277.58 446.92 287.513 443.458C287.806 443.437 288.098 443.513 288.343 443.675C288.589 443.836 288.775 444.073 288.872 444.35C288.97 444.628 288.973 444.929 288.883 445.209C288.792 445.488 288.612 445.73 288.37 445.897C278.778 449.232 270.006 454.573 262.64 461.565C255.274 468.556 249.483 477.038 245.653 486.444C245.554 486.671 245.394 486.867 245.19 487.009C244.987 487.151 244.748 487.234 244.5 487.248Z" fill="black"/>
<path d="M253.531 496.989C253.206 496.992 252.891 496.877 252.645 496.665C252.398 496.453 252.237 496.159 252.191 495.837C248.949 467.912 258.114 451.94 268.512 438.849C268.731 438.592 269.039 438.427 269.374 438.387C269.71 438.347 270.048 438.436 270.321 438.635C270.582 438.854 270.749 439.165 270.789 439.503C270.829 439.842 270.738 440.183 270.535 440.457C260.486 453.119 251.629 468.596 254.764 495.542C254.792 495.881 254.689 496.218 254.478 496.484C254.266 496.75 253.962 496.926 253.625 496.976L253.531 496.989Z" fill="black"/>
<path d="M249.941 494.068C249.661 494.061 249.39 493.967 249.167 493.799C248.943 493.631 248.778 493.397 248.694 493.13C244.675 478.324 247.663 455.169 264.064 439.291C264.311 439.061 264.637 438.934 264.975 438.934C265.313 438.934 265.638 439.061 265.886 439.291C266.12 439.54 266.25 439.868 266.25 440.209C266.25 440.55 266.12 440.878 265.886 441.127C250.945 455.585 247.194 477.868 251.213 492.407C251.294 492.737 251.246 493.085 251.079 493.381C250.912 493.677 250.64 493.899 250.316 494.001L249.941 494.068Z" fill="black"/>
<path d="M301.488 475.979C301.22 475.976 300.958 475.891 300.738 475.738C281.577 461.95 258.208 456.871 243.562 457.97C243.271 457.916 243.005 457.767 242.808 457.546C242.61 457.325 242.491 457.045 242.47 456.749C242.448 456.454 242.526 456.159 242.689 455.912C242.853 455.665 243.094 455.479 243.375 455.384C258.489 454.272 282.555 459.471 302.252 473.634C302.45 473.807 302.593 474.034 302.663 474.287C302.733 474.541 302.727 474.809 302.646 475.059C302.564 475.309 302.411 475.529 302.205 475.693C301.999 475.857 301.75 475.956 301.488 475.979Z" fill="black"/>
<path d="M301.756 472.401C301.576 472.406 301.397 472.369 301.234 472.294C284.055 464.67 258.06 463.665 240.775 469.936C240.607 470.056 240.414 470.136 240.21 470.169C240.006 470.202 239.797 470.187 239.599 470.126C239.402 470.065 239.221 469.959 239.071 469.817C238.922 469.675 238.807 469.499 238.736 469.305C238.665 469.111 238.64 468.903 238.663 468.698C238.686 468.492 238.756 468.295 238.868 468.121C238.98 467.948 239.13 467.802 239.308 467.696C239.485 467.59 239.685 467.526 239.891 467.51C257.739 461.025 284.551 462.07 302.279 469.936C302.583 470.084 302.819 470.342 302.941 470.658C303.063 470.973 303.061 471.323 302.935 471.637C302.829 471.861 302.662 472.051 302.454 472.186C302.246 472.321 302.004 472.395 301.756 472.401Z" fill="black"/>
<path d="M301.703 468.783C301.524 468.781 301.349 468.743 301.185 468.672C301.022 468.6 300.874 468.497 300.751 468.368C288.008 454.513 271.5 449.609 247.153 452.409C246.962 452.489 246.755 452.524 246.548 452.51C246.342 452.497 246.141 452.436 245.962 452.331C245.782 452.227 245.63 452.083 245.516 451.91C245.402 451.736 245.33 451.539 245.305 451.334C245.28 451.128 245.304 450.919 245.373 450.724C245.443 450.529 245.557 450.352 245.706 450.208C245.855 450.065 246.036 449.957 246.233 449.895C246.431 449.833 246.641 449.817 246.845 449.85C271.715 446.956 289.429 452.289 302.6 466.626C302.749 466.817 302.842 467.044 302.872 467.284C302.901 467.524 302.866 467.767 302.768 467.988C302.671 468.209 302.515 468.4 302.318 468.54C302.121 468.68 301.89 468.764 301.649 468.783H301.703Z" fill="black"/>
<path d="M300.738 463.531C300.396 463.522 300.07 463.383 299.827 463.142C283.895 447.25 261.424 444.959 251.254 448.403C250.959 448.422 250.666 448.344 250.421 448.18C250.176 448.016 249.991 447.775 249.897 447.496C249.802 447.216 249.802 446.913 249.897 446.634C249.993 446.354 250.177 446.114 250.423 445.951C261.209 442.293 284.953 444.611 301.649 461.306C301.879 461.554 302.006 461.88 302.006 462.218C302.006 462.555 301.879 462.881 301.649 463.129C301.408 463.375 301.082 463.519 300.738 463.531Z" fill="black"/>
<path d="M294.788 491.321C294.669 491.341 294.546 491.341 294.427 491.321C263.608 482.196 240.949 461.481 240.735 461.266C240.581 461.018 240.512 460.726 240.539 460.435C240.567 460.145 240.688 459.871 240.885 459.655C241.083 459.44 241.345 459.295 241.632 459.242C241.919 459.189 242.216 459.232 242.477 459.363C242.705 459.578 264.948 479.891 295.164 488.842C295.422 488.966 295.633 489.169 295.768 489.422C295.902 489.675 295.952 489.964 295.91 490.247C295.868 490.53 295.736 490.792 295.534 490.995C295.333 491.198 295.071 491.331 294.788 491.375V491.321Z" fill="black"/>
<path d="M295.405 490.531C295.23 490.529 295.057 490.492 294.896 490.423C276.248 482.097 258.382 472.119 241.512 460.61C241.316 460.541 241.139 460.428 240.994 460.279C240.85 460.131 240.742 459.95 240.678 459.753C240.615 459.555 240.599 459.346 240.63 459.141C240.662 458.936 240.741 458.741 240.861 458.571C240.98 458.402 241.138 458.263 241.321 458.164C241.503 458.066 241.706 458.012 241.914 458.006C242.121 457.999 242.327 458.041 242.516 458.128C242.704 458.215 242.87 458.344 242.999 458.506C259.721 469.913 277.43 479.801 295.914 488.052C296.153 488.194 296.341 488.408 296.454 488.662C296.566 488.917 296.596 489.2 296.54 489.472C296.484 489.745 296.345 489.993 296.141 490.183C295.938 490.372 295.681 490.494 295.405 490.531Z" fill="black"/>
<path d="M296.544 488.936C296.333 488.94 296.126 488.889 295.941 488.789C269.584 474.612 241.954 460.851 241.686 460.717C241.467 460.522 241.318 460.261 241.262 459.973C241.205 459.686 241.245 459.388 241.374 459.125C241.503 458.862 241.715 458.648 241.977 458.517C242.239 458.386 242.537 458.344 242.825 458.399C243.107 458.533 270.777 472.321 297.16 486.538C297.382 486.694 297.55 486.914 297.644 487.168C297.738 487.423 297.753 487.7 297.686 487.962C297.619 488.225 297.474 488.461 297.27 488.64C297.066 488.819 296.813 488.931 296.544 488.963V488.936Z" fill="black"/>
<path d="M297.468 487.516C297.182 487.521 296.902 487.426 296.678 487.248C272.746 468.488 242.665 459.779 242.356 459.698C242.102 459.548 241.904 459.317 241.795 459.042C241.685 458.767 241.67 458.463 241.751 458.179C241.832 457.894 242.005 457.644 242.243 457.468C242.481 457.292 242.771 457.2 243.067 457.206C243.375 457.3 273.885 466.117 298.272 485.211C298.53 485.43 298.694 485.738 298.734 486.073C298.774 486.409 298.686 486.747 298.487 487.02C298.367 487.176 298.213 487.303 298.036 487.389C297.86 487.475 297.665 487.518 297.468 487.516Z" fill="black"/>
<path d="M299.934 482.317C299.638 482.316 299.35 482.217 299.117 482.035C277.195 464.026 242.839 459.779 242.544 459.739C242.269 459.63 242.038 459.433 241.886 459.179C241.735 458.924 241.672 458.627 241.707 458.334C241.742 458.04 241.874 457.766 242.081 457.555C242.288 457.344 242.559 457.207 242.852 457.166C243.201 457.166 278.24 461.548 300.765 480.039C301.016 480.263 301.173 480.574 301.205 480.909C301.238 481.244 301.142 481.58 300.939 481.848C300.815 481.993 300.661 482.11 300.487 482.191C300.314 482.272 300.125 482.315 299.934 482.317Z" fill="black"/>
<path d="M259.534 500.285C259.277 500.258 259.032 500.156 258.831 499.992C258.63 499.829 258.481 499.61 258.401 499.364C258.322 499.117 258.316 498.852 258.384 498.602C258.452 498.352 258.591 498.127 258.784 497.954C283.211 480.28 297.16 455.759 297.294 455.518C297.345 455.318 297.441 455.133 297.575 454.977C297.709 454.82 297.877 454.697 298.067 454.616C298.256 454.535 298.462 454.499 298.667 454.51C298.873 454.522 299.073 454.581 299.252 454.682C299.431 454.783 299.585 454.925 299.701 455.095C299.817 455.265 299.892 455.46 299.92 455.664C299.948 455.868 299.929 456.076 299.864 456.271C299.799 456.467 299.69 456.644 299.545 456.791C299.411 457.032 285.181 482.049 260.298 500.044C260.074 500.201 259.808 500.285 259.534 500.285Z" fill="black"/>
</g>
</svg>
