<svg width="55" height="55" viewBox="0 0 55 55" fill="none" xmlns="http://www.w3.org/2000/svg">
<circle cx="27.5" cy="27.5" r="27.5" fill="white"/>
<path fill-rule="evenodd" clip-rule="evenodd" d="M17.5 20.3125C17.5 19.5666 17.7963 18.8512 18.3238 18.3238C18.8512 17.7963 19.5666 17.5 20.3125 17.5H34.6875C35.4334 17.5 36.1488 17.7963 36.6762 18.3238C37.2037 18.8512 37.5 19.5666 37.5 20.3125V30.9375C37.5 31.6834 37.2037 32.3988 36.6762 32.9262C36.1488 33.4537 35.4334 33.75 34.6875 33.75H30.8063C31.0503 34.5679 31.5282 35.2966 32.1812 35.8463C32.3281 35.9703 32.4333 36.1365 32.4826 36.3223C32.5318 36.5082 32.5228 36.7047 32.4566 36.8852C32.3904 37.0657 32.2703 37.2215 32.1126 37.3315C31.9549 37.4414 31.7673 37.5003 31.575 37.5H23.425C23.2329 37.5 23.0453 37.441 22.8878 37.3309C22.7303 37.2209 22.6105 37.065 22.5445 36.8846C22.4784 36.7041 22.4695 36.5078 22.5188 36.322C22.568 36.1363 22.6732 35.9702 22.82 35.8463C23.4725 35.2964 23.9501 34.5678 24.1937 33.75H20.3125C19.5666 33.75 18.8512 33.4537 18.3238 32.9262C17.7963 32.3988 17.5 31.6834 17.5 30.9375V20.3125ZM19.375 20.3125C19.375 20.0639 19.4738 19.8254 19.6496 19.6496C19.8254 19.4738 20.0639 19.375 20.3125 19.375H34.6875C34.9361 19.375 35.1746 19.4738 35.3504 19.6496C35.5262 19.8254 35.625 20.0639 35.625 20.3125V29.6875C35.625 29.9361 35.5262 30.1746 35.3504 30.3504C35.1746 30.5262 34.9361 30.625 34.6875 30.625H20.3125C20.0639 30.625 19.8254 30.5262 19.6496 30.3504C19.4738 30.1746 19.375 29.9361 19.375 29.6875V20.3125Z" fill="#1A1A1A"/>
</svg>
