<svg width="55" height="55" viewBox="0 0 55 55" fill="none" xmlns="http://www.w3.org/2000/svg">
<rect width="55" height="55" rx="20" fill="#9BCEFF"/>
<path d="M25.7766 32.573C25.6871 32.5734 25.5982 32.5595 25.5132 32.5318C25.3602 32.4823 25.2243 32.3908 25.1209 32.2677C25.0175 32.1446 24.9508 31.9949 24.9284 31.8357C24.8133 31.0325 23.8602 30.0976 22.9676 29.9161C22.8202 29.8856 22.6835 29.8169 22.5711 29.7167C22.4588 29.6166 22.3748 29.4886 22.3276 29.3457C22.2804 29.2027 22.2717 29.0499 22.3024 28.9025C22.3331 28.7552 22.402 28.6185 22.5023 28.5063L33.8051 15.9179C33.8153 15.9061 33.826 15.8949 33.8367 15.8842C34.4045 15.318 35.1737 15 35.9755 15C36.7774 15 37.5466 15.318 38.1144 15.8842C38.6804 16.4506 38.9988 17.2182 38.9999 18.0189C39.001 18.8196 38.6847 19.5881 38.1203 20.156L26.394 32.3106C26.314 32.3937 26.2181 32.4597 26.112 32.5048C26.0059 32.5498 25.8919 32.5731 25.7766 32.573Z" fill="white"/>
<path d="M19.7122 38.9984C17.9913 38.9984 16.2077 38.094 15.1689 36.696C15.0743 36.5685 15.0169 36.4172 15.0032 36.259C14.9895 36.1008 15.02 35.9419 15.0914 35.8001C15.1628 35.6582 15.2722 35.539 15.4073 35.4557C15.5425 35.3725 15.6982 35.3284 15.857 35.3284C16.1429 35.3284 16.9279 35.0677 16.9279 34.227C16.9279 32.135 18.6092 30.4328 20.676 30.4328C22.7429 30.4328 24.4242 32.135 24.4242 34.227C24.4242 36.8571 22.3102 38.9984 19.7122 38.9984Z" fill="white"/>
</svg>
