<svg width="50" height="50" viewBox="0 0 50 50" fill="none" xmlns="http://www.w3.org/2000/svg">
<path fill-rule="evenodd" clip-rule="evenodd" d="M49.5477 29.7336C48.2923 36.2441 44.502 41.9892 39.0106 45.7051C33.5193 49.421 26.7768 50.8032 20.2663 49.5478C13.7558 48.2923 8.01074 44.5021 4.29486 39.0107C0.578992 33.5194 -0.803267 26.7769 0.452168 20.2664C1.7076 13.7559 5.49789 8.01082 10.9892 4.29495C16.4805 0.579075 23.2231 -0.803184 29.7336 0.452251C36.244 1.70769 41.9891 5.49798 45.705 10.9893C49.4209 16.4806 50.8031 23.2232 49.5477 29.7336ZM26.1399 37.9501C25.9606 38.8802 25.4191 39.7009 24.6347 40.2318C23.8502 40.7626 22.887 40.9601 21.9569 40.7807C21.0268 40.6014 20.2061 40.0599 19.6753 39.2754C19.1444 38.491 18.947 37.5277 19.1263 36.5977C19.3056 35.6676 19.8471 34.8469 20.6316 34.316C21.4161 33.7852 22.3793 33.5877 23.3094 33.7671C24.2394 33.9464 25.0601 34.4879 25.591 35.2724C26.1218 36.0568 26.3193 37.0201 26.1399 37.9501ZM24.3512 15.029C24.8019 14.7249 25.316 14.5278 25.8545 14.4527C26.3929 14.3775 26.9414 14.4262 27.4581 14.5952C27.9749 14.7641 28.4462 15.0488 28.8362 15.4275C29.2263 15.8063 29.5247 16.269 29.7088 16.7806C29.8928 17.2921 29.9577 17.8389 29.8984 18.3793C29.8391 18.9197 29.6572 19.4395 29.3666 19.8989C29.076 20.3584 28.6843 20.7454 28.2215 21.0306C27.7586 21.3157 27.2367 21.4914 26.6956 21.5443C24.9954 21.7038 22.6903 22.8306 22.2008 25.3695L22.0317 26.2463C21.8972 26.9438 22.0453 27.6662 22.4434 28.2546C22.8415 28.8429 23.4571 29.249 24.1546 29.3835C24.8522 29.5181 25.5746 29.37 26.163 28.9718C26.7513 28.5737 27.1574 27.9582 27.2919 27.2606L27.3697 26.8573C28.7139 26.7026 30.0054 26.2444 31.1465 25.5174C32.2877 24.7903 33.2487 23.8134 33.9569 22.6605C34.6651 21.5075 35.102 20.2087 35.2345 18.8622C35.3671 17.5156 35.1919 16.1565 34.7222 14.8876C34.2524 13.6186 33.5004 12.4731 32.523 11.5374C31.5455 10.6018 30.3682 9.90054 29.08 9.48666C27.7918 9.07278 26.4263 8.9571 25.0868 9.14837C23.7473 9.33964 22.4688 9.83285 21.3479 10.5907C21.05 10.785 20.7938 11.0368 20.5942 11.3311C20.3946 11.6255 20.2557 11.9567 20.1855 12.3054C20.1153 12.6541 20.1152 13.0133 20.1853 13.362C20.2554 13.7107 20.3942 14.0419 20.5937 14.3364C20.7931 14.6308 21.0492 14.8826 21.3471 15.0771C21.6449 15.2715 21.9784 15.4047 22.3283 15.4688C22.6781 15.533 23.0372 15.5268 23.3847 15.4507C23.7321 15.3746 24.0609 15.23 24.3518 15.0254" fill="#88C07B"/>
</svg>
