<svg width="55" height="55" viewBox="0 0 55 55" fill="none" xmlns="http://www.w3.org/2000/svg">
<rect width="55" height="55" rx="20" fill="#B995FF"/>
<path d="M37.1966 15C33.0377 15 27.4572 17.8533 23.7098 22.7587H20.6032C18.3584 22.7587 17.0718 24.4342 16.1859 26.2061L15 28.5778H17.7997H20.6032L23.5127 31.4873L26.4222 34.3968V37.2003V40L28.7939 38.8143C30.5658 37.9282 32.2413 36.6416 32.2413 34.3968V31.2902C37.1467 27.5428 40 21.9623 40 17.8034V15H37.1966ZM32.2413 20.8191C33.3126 20.8191 34.181 21.6874 34.181 22.7587C34.181 23.83 33.3126 24.6984 32.2413 24.6984C31.17 24.6984 30.3016 23.83 30.3016 22.7587C30.3016 21.6874 31.17 20.8191 32.2413 20.8191ZM19.6333 32.4572L18.6635 33.427C17.2626 34.8278 16.7238 38.2762 16.7238 38.2762C16.7238 38.2762 20.0174 37.8921 21.573 36.3365L22.5428 35.3667L19.6333 32.4572Z" fill="white"/>
</svg>
