<svg width="64" height="64" viewBox="0 0 64 64" fill="none" xmlns="http://www.w3.org/2000/svg">
<path d="M40.4853 40.4853C39.371 41.5997 38.0482 42.4836 36.5922 43.0866C35.1363 43.6897 33.5759 44.0001 32 44.0001C30.4241 44.0001 28.8637 43.6897 27.4078 43.0866C25.9518 42.4836 24.629 41.5997 23.5147 40.4853M56 32C56 35.1517 55.3792 38.2726 54.1731 41.1844C52.967 44.0962 51.1992 46.742 48.9706 48.9706C46.742 51.1992 44.0962 52.967 41.1844 54.1731C38.2726 55.3792 35.1517 56 32 56C28.8483 56 25.7274 55.3792 22.8156 54.1731C19.9038 52.967 17.258 51.1992 15.0294 48.9706C12.8008 46.742 11.033 44.0962 9.82689 41.1844C8.62078 38.2726 8 35.1517 8 32C8 25.6348 10.5286 19.5303 15.0294 15.0294C19.5303 10.5286 25.6348 8 32 8C38.3652 8 44.4697 10.5286 48.9706 15.0294C53.4714 19.5303 56 25.6348 56 32ZM26 26C26 27.104 25.552 28 25 28C24.448 28 24 27.104 24 26C24 24.896 24.448 24 25 24C25.552 24 26 24.896 26 26ZM25 26H25.0213V26.04H25V26ZM40 26C40 27.104 39.552 28 39 28C38.448 28 38 27.104 38 26C38 24.896 38.448 24 39 24C39.552 24 40 24.896 40 26ZM39 26H39.0213V26.04H39V26Z" stroke="#FF842C" stroke-width="4" stroke-linecap="round" stroke-linejoin="round"/>
</svg>
