<svg width="64" height="64" viewBox="0 0 64 64" fill="none" xmlns="http://www.w3.org/2000/svg">
<path fill-rule="evenodd" clip-rule="evenodd" d="M38.32 4.30797C38.9139 4.59953 39.3948 5.07925 39.6878 5.67247C39.9808 6.26569 40.0695 6.93913 39.94 7.58797L36.66 24H53C53.5751 23.9999 54.138 24.1652 54.6219 24.476C55.1057 24.7869 55.49 25.2302 55.7289 25.7533C55.9679 26.2763 56.0515 26.857 55.9698 27.4263C55.8881 27.9955 55.6445 28.5293 55.268 28.964L29.268 58.964C28.8343 59.4638 28.2474 59.8061 27.5989 59.9377C26.9503 60.0693 26.2765 59.9828 25.6822 59.6916C25.0879 59.4004 24.6067 58.9209 24.3133 58.3277C24.0199 57.7345 23.9308 57.061 24.06 56.412L27.34 40H11C10.4249 40 9.86197 39.8348 9.37815 39.5239C8.89433 39.2131 8.51005 38.7697 8.27107 38.2467C8.03209 37.7236 7.94848 37.1429 8.0302 36.5737C8.11192 36.0044 8.35553 35.4707 8.732 35.036L34.732 5.03597C35.1658 4.53562 35.7531 4.19288 36.4021 4.06119C37.0511 3.92951 37.7255 4.01628 38.32 4.30797Z" fill="#FFB366"/>
</svg>
